<svg xmlns="http://www.w3.org/2000/svg" viewBox="0 0 500 500"><g id="freepik--background-complete--inject-9"><g><g><g><polygon points="236.97 38.71 236.97 122.07 225.27 122.07 225.27 142.28 205.05 122.07 94.09 122.07 94.09 38.71 236.97 38.71" style="fill:#fff;"></polygon><path d="M236.97,38.71c.06,23.7,.58,59.94,.6,83.35v.6h-.6l-11.7,.06,.65-.65,.09,20.22v1.79l-1.27-1.27-20.3-20.14c-24.52,.79-84.27,.11-111.34,.38v-.98l.13-83.35v-.86h.85c35.63,.17,107.27,.55,142.88,.86h0Zm0,0c-35.61,.31-107.29,.69-142.88,.85l.85-.85,.13,83.35-.98-.98c27.86,0,83.46,.08,111.31,.13l.25,.25,20.14,20.3-1.27,.53,.09-20.22v-.65h.65l11.7,.06-.6,.6c.14-23.27,.41-59.83,.6-83.35h0Z" style="fill:#ebebeb;"></path></g><g><path d="M138.52,80.39c0,3.74-3.03,6.77-6.77,6.77s-6.77-3.03-6.77-6.77,3.03-6.77,6.77-6.77,6.77,3.03,6.77,6.77Z" style="fill:#ebebeb;"></path><path d="M172.31,80.39c0,3.74-3.03,6.77-6.77,6.77s-6.77-3.03-6.77-6.77,3.03-6.77,6.77-6.77,6.77,3.03,6.77,6.77Z" style="fill:#ebebeb;"></path><path d="M206.09,80.39c0,3.74-3.03,6.77-6.77,6.77s-6.77-3.03-6.77-6.77,3.03-6.77,6.77-6.77,6.77,3.03,6.77,6.77Z" style="fill:#ebebeb;"></path></g></g><g><g><polygon points="293.93 104.06 293.93 169.39 303.1 169.39 303.1 185.24 318.94 169.39 405.91 169.39 405.91 104.06 293.93 104.06" style="fill:#fff;"></polygon><path d="M293.93,104.06c.25,19.25,.46,46.4,.6,65.33l-.6-.6,9.17-.05h.65v.65l.1,15.85-1.27-.53,15.77-15.92,.25-.25c25.74-.05,61.93-.15,87.32-.13l-.98,.98,.13-65.33,.85,.85c-27.91-.12-84.07-.58-111.98-.85h0Zm0,0c28.34-.27,84.48-.73,112.83-.86v.86l.13,65.33v.98c-25.53,.08-62.04-.12-87.94-.12l.6-.25-15.92,15.77-1.28,1.27v-1.79l.1-15.85,.65,.65-9.17-.05h-.6c0-19.27,.48-46.43,.6-65.92h0Z" style="fill:#ebebeb;"></path></g><g><path d="M371.09,136.73c0,2.93,2.38,5.31,5.31,5.31s5.31-2.38,5.31-5.31-2.38-5.31-5.31-5.31-5.31,2.38-5.31,5.31Z" style="fill:#ebebeb;"></path><path d="M344.61,136.73c0,2.93,2.38,5.31,5.31,5.31s5.31-2.38,5.31-5.31-2.38-5.31-5.31-5.31-5.31,2.38-5.31,5.31Z" style="fill:#ebebeb;"></path><path d="M318.13,136.73c0,2.93,2.38,5.31,5.31,5.31s5.31-2.38,5.31-5.31-2.38-5.31-5.31-5.31-5.31,2.38-5.31,5.31Z" style="fill:#ebebeb;"></path></g></g></g><g><g><rect x="438.46" y="330.28" width="1" height="4.57" style="fill:#dbdbdb;"></rect><rect x="432.49" y="332.72" width="1" height="4.57" transform="translate(-110.06 404.3) rotate(-45)" style="fill:#dbdbdb;"></rect><rect x="428.2" y="340.45" width="4.57" height="1" style="fill:#dbdbdb;"></rect><rect x="430.64" y="346.43" width="4.57" height="1" transform="translate(-118.51 407.74) rotate(-45)" style="fill:#dbdbdb;"></rect><rect x="438.37" y="347.15" width="1" height="4.57" style="fill:#dbdbdb;"></rect><rect x="444.35" y="344.71" width="1" height="4.57" transform="translate(-115.07 416.19) rotate(-45)" style="fill:#dbdbdb;"></rect><rect x="445.06" y="340.54" width="4.57" height="1" style="fill:#dbdbdb;"></rect><rect x="442.63" y="334.57" width="4.57" height="1" transform="translate(-106.62 412.74) rotate(-45)" style="fill:#dbdbdb;"></rect></g><g><rect x="60.63" y="93.77" width="1" height="4.57" style="fill:#dbdbdb;"></rect><rect x="54.65" y="96.21" width="1" height="4.57" transform="translate(-53.49 67.85) rotate(-45)" style="fill:#dbdbdb;"></rect><rect x="50.37" y="103.94" width="4.57" height="1" style="fill:#dbdbdb;"></rect><rect x="52.8" y="109.92" width="4.57" height="1" transform="translate(-61.94 71.28) rotate(-45)" style="fill:#dbdbdb;"></rect><rect x="60.53" y="110.63" width="1" height="4.57" style="fill:#dbdbdb;"></rect><rect x="66.51" y="108.2" width="1" height="4.57" transform="translate(-58.5 79.74) rotate(-45)" style="fill:#dbdbdb;"></rect><rect x="67.23" y="104.03" width="4.57" height="1" style="fill:#dbdbdb;"></rect><rect x="64.79" y="98.06" width="4.57" height="1" transform="translate(-50.05 76.31) rotate(-45)" style="fill:#dbdbdb;"></rect></g><g><rect x="416.48" y="140.61" width="1" height="4.57" style="fill:#dbdbdb;"></rect><rect x="410.51" y="143.04" width="1" height="4.57" transform="translate(17.63 333.22) rotate(-45)" style="fill:#dbdbdb;"></rect><rect x="406.22" y="150.77" width="4.57" height="1" style="fill:#dbdbdb;"></rect><rect x="408.66" y="156.75" width="4.57" height="1" transform="translate(9.17 336.64) rotate(-45)" style="fill:#dbdbdb;"></rect><rect x="416.39" y="157.47" width="1" height="4.57" style="fill:#dbdbdb;"></rect><rect x="422.37" y="155.03" width="1" height="4.57" transform="translate(12.63 345.11) rotate(-45)" style="fill:#dbdbdb;"></rect><rect x="423.08" y="150.87" width="4.57" height="1" style="fill:#dbdbdb;"></rect><rect x="420.65" y="144.89" width="4.57" height="1" transform="translate(21.07 341.64) rotate(-45)" style="fill:#dbdbdb;"></rect></g><g><rect x="271.33" y="57.02" width="1" height="4.57" style="fill:#dbdbdb;"></rect><rect x="265.36" y="59.46" width="1" height="4.57" transform="translate(34.22 206.09) rotate(-45)" style="fill:#dbdbdb;"></rect><rect x="261.07" y="67.19" width="4.57" height="1" style="fill:#dbdbdb;"></rect><rect x="263.51" y="73.17" width="4.57" height="1" transform="translate(25.76 209.52) rotate(-45)" style="fill:#dbdbdb;"></rect><rect x="271.24" y="73.88" width="1" height="4.57" style="fill:#dbdbdb;"></rect><rect x="277.22" y="71.45" width="1" height="4.57" transform="translate(29.21 217.99) rotate(-45)" style="fill:#dbdbdb;"></rect><rect x="277.93" y="67.28" width="4.57" height="1" style="fill:#dbdbdb;"></rect><rect x="275.5" y="61.31" width="4.57" height="1" transform="translate(37.64 214.51) rotate(-45)" style="fill:#dbdbdb;"></rect></g><g><rect x="293.32" y="28.25" width="1" height="2.52" style="fill:#dbdbdb;"></rect><rect x="290.02" y="29.6" width="1" height="2.52" transform="translate(63.27 214.47) rotate(-45)" style="fill:#dbdbdb;"></rect><rect x="287.88" y="33.64" width="2.52" height="1" style="fill:#dbdbdb;"></rect><rect x="289.22" y="36.94" width="2.52" height="1" transform="translate(58.61 216.37) rotate(-45)" style="fill:#dbdbdb;"></rect><rect x="293.27" y="37.56" width="1" height="2.52" style="fill:#dbdbdb;"></rect><rect x="296.57" y="36.22" width="1" height="2.52" transform="translate(60.53 221.07) rotate(-45.01)" style="fill:#dbdbdb;"></rect><rect x="297.19" y="33.69" width="2.52" height="1" style="fill:#dbdbdb;"></rect><rect x="295.84" y="30.4" width="2.52" height="1" transform="translate(65.19 219.15) rotate(-45)" style="fill:#dbdbdb;"></rect></g><g><rect x="309.39" y="189.53" width="1" height="2.52" style="fill:#dbdbdb;"></rect><rect x="306.1" y="190.87" width="1" height="2.52" transform="translate(-46.05 273.13) rotate(-45.01)" style="fill:#dbdbdb;"></rect><rect x="303.95" y="194.92" width="2.52" height="1" style="fill:#dbdbdb;"></rect><rect x="305.3" y="198.22" width="2.52" height="1" transform="translate(-50.73 274.95) rotate(-45)" style="fill:#dbdbdb;"></rect><rect x="309.34" y="198.84" width="1" height="2.52" style="fill:#dbdbdb;"></rect><rect x="312.64" y="197.49" width="1" height="2.52" transform="translate(-48.83 279.59) rotate(-44.99)" style="fill:#dbdbdb;"></rect><rect x="313.26" y="194.97" width="2.52" height="1" style="fill:#dbdbdb;"></rect><rect x="311.92" y="191.67" width="2.52" height="1" transform="translate(-44.16 277.71) rotate(-45)" style="fill:#dbdbdb;"></rect></g><g><rect x="432.52" y="88.32" width="1" height="2.52" style="fill:#dbdbdb;"></rect><rect x="429.22" y="89.67" width="1" height="2.52" transform="translate(61.53 330.44) rotate(-44.99)" style="fill:#dbdbdb;"></rect><rect x="427.07" y="93.71" width="2.52" height="1" style="fill:#dbdbdb;"></rect><rect x="428.42" y="97.01" width="2.52" height="1" transform="translate(56.92 332.42) rotate(-45)" style="fill:#dbdbdb;"></rect><rect x="432.46" y="97.63" width="1" height="2.52" style="fill:#dbdbdb;"></rect><rect x="435.76" y="96.29" width="1" height="2.52" transform="translate(58.77 337.01) rotate(-44.99)" style="fill:#dbdbdb;"></rect><rect x="436.38" y="93.76" width="2.52" height="1" style="fill:#dbdbdb;"></rect><rect x="435.04" y="90.47" width="2.52" height="1" transform="translate(63.47 335.15) rotate(-45)" style="fill:#dbdbdb;"></rect></g><g><rect x="170.75" y="355.52" width="1" height="2.52" style="fill:#dbdbdb;"></rect><rect x="167.46" y="356.87" width="1" height="2.52" transform="translate(-204.06 223.71) rotate(-45.01)" style="fill:#dbdbdb;"></rect><rect x="165.31" y="360.91" width="2.52" height="1" style="fill:#dbdbdb;"></rect><rect x="166.66" y="364.21" width="2.52" height="1" transform="translate(-208.7 225.53) rotate(-45)" style="fill:#dbdbdb;"></rect><rect x="170.7" y="364.83" width="1" height="2.52" style="fill:#dbdbdb;"></rect><rect x="174" y="363.49" width="1" height="2.52" transform="translate(-206.81 230.23) rotate(-45)" style="fill:#dbdbdb;"></rect><rect x="174.62" y="360.96" width="2.52" height="1" style="fill:#dbdbdb;"></rect><rect x="173.28" y="357.67" width="2.52" height="1" transform="translate(-202.13 228.29) rotate(-45)" style="fill:#dbdbdb;"></rect></g></g></g><g id="freepik--Floor--inject-9"><path d="M46.14,463.77c130.61-.61,277.12-.62,407.72,0-130.61,.62-277.12,.61-407.72,0h0Z" style="fill:#263238;"></path></g><g id="freepik--Speech_Bubbles--inject-9"><g><g><g><polygon points="450.38 210.06 450.38 331.89 433.28 331.89 433.28 361.44 403.73 331.89 241.56 331.89 241.56 210.06 450.38 210.06" style="fill:#fff;"></polygon><path d="M450.38,210.06c-.11,.71,.68,121.81,.6,122.42h-.6l-17.1,.06,.65-.65,.09,29.55v1.79l-1.27-1.27-29.63-29.47c3.24,.77-162.29,.1-161.57,.38h-.98v-.98l.13-121.83v-.86h.85c52.06,.18,156.78,.54,208.82,.86h0Zm0,0c-52.04,.33-156.8,.68-208.82,.85l.85-.85,.13,121.83-.98-.98c.36,0,162.2,.13,162.52,.13l.25,.25,29.47,29.63-1.27,.53,.09-29.55v-.65h.65l17.1,.06-.6,.6,.6-121.83h0Z" style="fill:#263238;"></path></g><g><circle cx="296.6" cy="270.97" r="9.89" transform="translate(12.58 555.1) rotate(-87.43)" style="fill:#263238;"></circle><path d="M355.87,270.97c0,5.46-4.43,9.89-9.89,9.89s-9.89-4.43-9.89-9.89,4.43-9.89,9.89-9.89,9.89,4.43,9.89,9.89Z" style="fill:#263238;"></path><path d="M405.24,270.97c0,5.46-4.43,9.89-9.89,9.89s-9.89-4.43-9.89-9.89,4.43-9.89,9.89-9.89,9.89,4.43,9.89,9.89Z" style="fill:#263238;"></path></g></g><g><g><polygon points="49.62 157.02 49.62 255.63 63.46 255.63 63.46 279.55 87.38 255.63 218.64 255.63 218.64 157.02 49.62 157.02" style="fill:#fff;"></polygon><path d="M49.62,157.02c.24,27.98,.44,70.96,.6,98.61l-.6-.6,13.84-.05h.65v.65l.09,23.92-1.27-.53,23.84-24,.25-.25c.28,.13,131.29-.22,131.62-.13l-.98,.98,.13-98.61,.85,.85c-42.14-.11-126.89-.59-169.02-.85h0Zm0,0c42.56-.26,127.31-.74,169.87-.86v.86l.13,98.61v.98h-.98c.04-.39-133.36,.44-130.66-.38l-24,23.84-1.28,1.27v-1.79l.1-23.92,.65,.65-13.84-.05h-.6v-.6c.02-27.58,.5-70.72,.6-98.61h0Z" style="fill:#263238;"></path></g><g><path d="M166.08,206.32c0,4.42,3.59,8.01,8.01,8.01s8.01-3.59,8.01-8.01-3.59-8.01-8.01-8.01-8.01,3.59-8.01,8.01Z" style="fill:#263238;"></path><path d="M126.12,206.32c0,4.42,3.59,8.01,8.01,8.01s8.01-3.59,8.01-8.01-3.59-8.01-8.01-8.01-8.01,3.59-8.01,8.01Z" style="fill:#263238;"></path><path d="M86.15,206.32c0,4.42,3.59,8.01,8.01,8.01s8.01-3.59,8.01-8.01-3.59-8.01-8.01-8.01-8.01,3.59-8.01,8.01Z" style="fill:#263238;"></path></g></g></g><g><g><g><polygon points="140.84 29.71 140.84 64.98 145.79 64.98 145.79 73.54 154.35 64.98 201.31 64.98 201.31 29.71 140.84 29.71" style="fill:#fff;"></polygon><path d="M140.84,29.71l.3,35.28-.3-.3,4.95-.03h.32v.33l.05,8.56-.63-.26,8.52-8.6c.15-.15,.11-.12,.3-.12l46.96-.06-.49,.49,.06-35.28,.43,.43c-15.07-.06-45.4-.29-60.47-.43h0Zm0,0c15.29-.13,45.61-.37,60.9-.43v.43l.06,35.28v.49h-.49c.11-.17-48.08,.2-46.66-.19l-8.6,8.52-.64,.63v-.9l.05-8.56,.33,.33-4.95-.03h-.3v-.3l.3-35.28h0Z" style="fill:#263238;"></path></g><g><path d="M182.51,47.34c0,1.58,1.28,2.87,2.87,2.87s2.87-1.28,2.87-2.87-1.28-2.87-2.87-2.87-2.87,1.28-2.87,2.87Z" style="fill:#263238;"></path><path d="M168.21,47.34c0,1.58,1.28,2.87,2.87,2.87s2.86-1.28,2.86-2.87-1.28-2.87-2.86-2.87-2.87,1.28-2.87,2.87Z" style="fill:#263238;"></path><path d="M153.91,47.34c0,1.58,1.28,2.87,2.86,2.87s2.87-1.28,2.87-2.87-1.28-2.87-2.87-2.87-2.86,1.28-2.86,2.87Z" style="fill:#263238;"></path></g></g><g><g><polygon points="363.16 33.1 363.16 68.38 358.21 68.38 358.21 76.94 349.65 68.38 302.69 68.38 302.69 33.1 363.16 33.1" style="fill:#fff;"></polygon><path d="M363.16,33.1l.3,35.28v.3h-.3l-4.95,.03,.33-.33,.05,8.56v.9l-.63-.63-8.6-8.52c1.6,.36-47.01,.06-46.66,.19h-.49v-.49l.06-35.28v-.43h.43c15.08,.08,45.4,.28,60.47,.43h0Zm0,0c-15.07,.16-45.41,.35-60.47,.43l.43-.43,.06,35.28-.49-.49,46.96,.06h.18l.12,.12,8.52,8.6-.63,.26,.05-8.56v-.33h.33l4.95,.03-.3,.3,.3-35.28h0Z" style="fill:#263238;"></path></g><g><circle cx="318.63" cy="50.74" r="2.87" style="fill:#263238;"></circle><path d="M335.79,50.74c0,1.58-1.28,2.87-2.87,2.87s-2.86-1.28-2.86-2.87,1.28-2.87,2.86-2.87,2.87,1.28,2.87,2.87Z" style="fill:#263238;"></path><path d="M350.09,50.74c0,1.58-1.28,2.87-2.86,2.87s-2.87-1.28-2.87-2.87,1.28-2.87,2.87-2.87,2.86,1.28,2.86,2.87Z" style="fill:#263238;"></path></g></g><g><g><polygon points="216.83 118.82 216.83 90.16 212.81 90.16 212.81 83.21 205.85 90.16 167.7 90.16 167.7 118.82 216.83 118.82" style="fill:#fff;"></polygon><path d="M216.83,118.82l-.3-28.66,.3,.3-4.02,.03h-.32v-.33l-.05-6.95,.63,.26-6.91,6.99c-.15,.15-.11,.12-.3,.12l-38.15,.06,.49-.49-.06,28.66-.43-.43c12.24,.06,36.88,.29,49.13,.43h0Zm0,0c-12.46,.14-37.09,.37-49.55,.43v-.43l-.06-28.66v-.49h.49l38.15,.06-.3,.12,6.99-6.91,.64-.63v.9l-.05,6.95-.33-.33,4.02,.03h.3v.3c-.04,9.64-.24,19.19-.3,28.66h0Z" style="fill:#263238;"></path></g><g><path d="M182.98,104.49c0-1.29-1.04-2.33-2.33-2.33s-2.33,1.04-2.33,2.33,1.04,2.33,2.33,2.33,2.33-1.04,2.33-2.33Z" style="fill:#263238;"></path><path d="M194.59,104.49c0-1.29-1.04-2.33-2.33-2.33s-2.33,1.04-2.33,2.33,1.04,2.33,2.33,2.33,2.33-1.04,2.33-2.33Z" style="fill:#263238;"></path><path d="M206.21,104.49c0-1.29-1.04-2.33-2.33-2.33s-2.33,1.04-2.33,2.33,1.04,2.33,2.33,2.33,2.33-1.04,2.33-2.33Z" style="fill:#263238;"></path></g></g></g></g><g id="freepik--Character_3--inject-9"><g><g><g><path d="M384.52,113.19c-.64,24.38-3.63,35.26-7.54,52.26-2.79,12.13-20.62,29.92-32.66,42.1-1.98,2-25.49-14.3-23.45-18.42,1.28-2.57,28.8-28.4,31.42-35.01,3.46-8.75,11.75-27.99,19.95-43.73,5-9.61,12.74-14.55,12.28,2.81Z" style="fill:#d3766a;"></path><g><path d="M332.04,216.45c1.57-.99,2.1-.17,.99,2.94-1.12,3.15-8.16,14.49-3.98,16.61,4.19,2.14,13.88-14.07,15.34-19.4,1.47-5.32,1.94-14.45,1.94-14.45-2.52,2.77-9.28,8.92-14.29,14.3Z" style="fill:#d3766a;"></path><path d="M324,185.94c-8.15,7.99-15.79,17.71-17.8,29.45-.39,2.3,.53,3.83,.53,3.83-.99,5.25,1.19,7.3,1.19,7.3,.57,5.17,3.09,6.96,3.09,6.96,0,0-.28,4.31,2.72,4.72,2.91,.4,5.75-6.28,9.17-10.96,7.85-10.71,20.86-22.22,23.43-25.09l-22.33-16.21Z" style="fill:#d3766a;"></path><path d="M322.11,211.75c-2.25,3.2-4.54,6.28-6.34,9.77-1.98,3.82-3.24,7.84-4.62,11.89-.04,.13-.22,.08-.2-.05,1.35-7.73,5.68-15.97,11.02-21.7,.13-.14,.26-.06,.14,.1Z" style="fill:#263238;"></path><path d="M316.33,206.07c-2.01,3.23-5.51,8.94-8.28,20.47,0,.04-.08,.03-.07,0,.8-7.73,3.59-14.38,8.2-20.56,.14-.19,.29-.12,.15,.1Z" style="fill:#263238;"></path><path d="M313.17,203.08c-3.21,5.63-4.53,9.58-6.4,16.12-.01,.04-.08,.03-.07-.01,1.35-7.65,2.7-10.27,6.29-16.24,.12-.2,.3-.08,.18,.14Z" style="fill:#263238;"></path></g></g><g><path d="M349.51,210.84l-25.93-29.96s24.69-21.72,26.05-24.66c1.36-2.94,15.39-32.84,20.55-43.89,5.82-12.48,15.57-19.53,14.83,.87-1.08,29.65-6.31,50.2-7.9,57.18-1.58,6.98-27.6,40.47-27.6,40.47Z" style="fill:#004EFF;"></path><path d="M351.86,201.71c-.75-1.13-1.79-2.12-2.67-3.15-.8-.93-1.59-1.88-2.4-2.8-1.77-2.01-3.53-4.04-5.31-6.04-1.78-2-3.54-4.01-5.34-5.99-1.79-1.97-3.51-4.01-5.41-5.89-.07-.07-.19,.03-.13,.12,1.49,2.21,3.22,4.26,4.9,6.33,1.65,2.04,3.37,4.03,5.11,6,1.77,2,3.6,3.96,5.44,5.9,.89,.93,1.81,1.84,2.73,2.74,.96,.96,1.9,2.06,2.98,2.87,.06,.04,.14-.02,.1-.09Z" style="fill:#263238;"></path><path d="M385.01,113.2c-1.08,29.65-6.31,50.2-7.9,57.17-1.59,6.98-27.61,40.47-27.61,40.47l-11.79-13.63,43.48-96.86c2.47,.29,4.14,3.96,3.82,12.85Z" style="opacity:.1;"></path></g></g><g><g><g><path d="M394.89,337.48s36.72,29.68,36.75,29.7c7.05,5.64,13.14,10.71,16.04,13.62,.02,.01,.04,.03,.05,.05,1.1,1.1,1.73,1.88,1.76,2.26,0,.03,.02,.05,.01,.08-.26,3.24-43.68,60.91-45.87,62.41-2.19,1.52-6.64-4.63-6.74-8.21-.09-3.6,6.65-33.11,6.65-33.11l-36.43-30.01,27.78-36.79Z" style="fill:#d3766a;"></path><path d="M424.1,361.08s7.51,6.07,7.54,6.09c7.05,5.64,13.14,10.71,16.04,13.62,.02,.01,.04,.03,.05,.05,1.03,1.16,1.66,1.97,1.76,2.26,0,.03,.02,.05,.01,.08-.26,3.24-43.68,60.91-45.87,62.41-2.19,1.52-6.64-4.63-6.74-8.21-.09-3.6,6.65-33.11,6.65-33.11l-7.74-6.08,28.3-37.12Z" style="fill:#fff;"></path><g><path d="M403.92,445.8c2.2-1.5,45.67-59.13,45.93-62.38,.12-1.23-7.91-8.06-17.85-16.02-.1-.08-.21-.16-.31-.25l-28.46,36.87,.64,.46s-6.77,29.5-6.68,33.1c.1,3.58,4.55,9.72,6.73,8.21Z" style="fill:#263238;"></path><g><path d="M402.18,443.46c7.09-9.89,36.62-49.13,44.38-58.38,.06-.08,.12-.04,.06,.05-6.81,9.96-36.66,48.96-44.28,58.45-.16,.2-.31,.09-.16-.12Z" style="fill:#fff;"></path><path d="M401.62,407.69c2.17-4.36,6.28-8.59,11.21-9.46,.19-.03,.24,.24,.1,.33-4.03,2.87-7.45,5.82-10.82,9.48-.24,.26-.65-.04-.49-.35Z" style="fill:#fff;"></path><path d="M401.21,411.71c2.17-4.36,6.28-8.59,11.21-9.46,.19-.03,.24,.24,.1,.33-4.03,2.87-7.45,5.82-10.82,9.48-.24,.26-.65-.04-.49-.35Z" style="fill:#fff;"></path><path d="M400.79,415.72c2.17-4.36,6.28-8.59,11.21-9.46,.19-.03,.24,.24,.1,.33-4.03,2.87-7.45,5.82-10.82,9.48-.24,.26-.65-.04-.49-.35Z" style="fill:#fff;"></path></g><path d="M401.19,445.12c-.38,1.33,3.25,3.72,4.09,3.19,.84-.53,47.96-63.58,48.53-64.83,.57-1.25-3.56-3.75-4.69-2.65-1.13,1.09-47.92,64.3-47.92,64.3Z" style="fill:#004EFF;"></path><path d="M401.19,445.12c-.38,1.33,3.25,3.72,4.09,3.19,.84-.53,47.96-63.58,48.53-64.83,.57-1.25-3.56-3.75-4.69-2.65-1.13,1.09-47.92,64.3-47.92,64.3Z" style="opacity:.4;"></path><path d="M430.97,381.54c1.06-5.75,10.01-4.11,8.94,1.65-1.06,5.75-10.01,4.11-8.94-1.65Z" style="fill:#fff;"></path></g></g><g><path d="M372.94,302.95c2.6,12.85,47.18,54.92,47.18,54.92l-28.42,36.66s-72.94-54.46-69.82-82.96c3.27-29.91,40.56-130.38,40.56-130.38h42.65s-34.72,109.12-32.16,121.76Z" style="fill:#455a64;"></path><path d="M369.72,294.97c.6-3.18,1.27-6.35,1.93-9.52,1.35-6.47,2.78-12.93,4.29-19.36,3-12.76,6.24-25.46,9.77-38.08,3.55-12.66,7.29-25.3,11.61-37.72,.53-1.53,1.08-3.06,1.63-4.59,.04-.12,.22-.06,.18,.06-3.74,12.44-7.59,24.84-11.1,37.35-3.49,12.46-6.72,24.98-9.77,37.56-1.53,6.32-2.95,12.66-4.34,19-.68,3.12-1.35,6.24-2,9.37-.66,3.17-1.55,6.41-1.74,9.65-.19,3.19,.83,6.01,2.44,8.7,1.56,2.6,3.39,5.04,5.17,7.48,3.55,4.9,37.42,43.28,38.51,44.32,.09,.08-.05,.21-.13,.13-4.54-4.15-33.28-35.78-36.92-40.67-1.81-2.42-3.56-4.88-5.29-7.36-1.62-2.32-3.24-4.69-4.13-7.41-.96-2.92-.67-5.94-.11-8.91Z" style="fill:#263238;"></path><path d="M369.82,181.19l6.63,99.22c7.39-34.78,28.64-99.22,28.64-99.22h-35.27Z" style="fill:#263238;"></path></g></g><g><g><path d="M387.64,390.75s-8.74,44.51-8.74,44.55c-.12,9.03-.39,16.94-.91,21.02,0,.02,0,.04,0,.07-.2,1.54-.42,2.52-.7,2.78-.02,.02-.03,.04-.05,.06-2.71,1.78-74.9,2.9-77.43,2.1-2.54-.8-.43-8.08,2.34-10.36,2.79-2.28,30.22-15.07,30.22-15.07l9.65-44.81,45.63-.33Z" style="fill:#d3766a;"></path><path d="M299.79,461.31c2.53,.81,74.72-.31,77.43-2.09,.02-.01,.04-.04,.06-.06,.27-.26,.51-1.24,.7-2.78,.01-.02,.01-.05,.01-.07,.52-4.07,.78-11.99,.91-21.01,0-.01,1.59-7.8,1.59-7.8h-46.33l-1.8,8.39s-27.44,12.79-30.23,15.08c-2.76,2.28-4.88,9.56-2.34,10.36Z" style="fill:#fff;"></path><g><path d="M299.8,461.32c2.53,.81,74.71-.31,77.43-2.1,1.05-.66,1.49-11.19,1.67-23.92,0-.13,0-.27,0-.4l-46.57,.2,.03,.79s-27.44,12.79-30.22,15.07c-2.76,2.27-4.88,9.56-2.34,10.36Z" style="fill:#263238;"></path><g><path d="M300.57,458.51c12.16-.49,61.26-1.31,73.32-.86,.1,0,.1,.07,0,.08-12.04,.75-61.15,1.17-73.32,.99-.26,0-.26-.19,0-.2Z" style="fill:#fff;"></path><path d="M328.45,436.09c4.77-.97,10.64-.32,14.35,3.03,.14,.13-.04,.33-.2,.29-4.75-1.42-9.17-2.3-14.13-2.71-.35-.03-.37-.54-.03-.6Z" style="fill:#fff;"></path><path d="M325.03,438.23c4.77-.97,10.64-.32,14.35,3.03,.14,.13-.04,.33-.2,.29-4.75-1.42-9.17-2.3-14.13-2.71-.35-.03-.37-.53-.03-.6Z" style="fill:#fff;"></path><path d="M321.6,440.36c4.77-.97,10.64-.32,14.35,3.03,.14,.13-.04,.33-.2,.29-4.75-1.42-9.17-2.3-14.13-2.71-.35-.03-.37-.54-.03-.6Z" style="fill:#fff;"></path></g><path d="M298.65,458.75c-1.28,.52-.94,4.85,0,5.19,.94,.33,79.63-1.24,80.96-1.56,1.33-.32,.77-5.11-.79-5.33-1.56-.22-80.17,1.7-80.17,1.7Z" style="fill:#004EFF;"></path><path d="M298.65,458.75c-1.28,.52-.94,4.85,0,5.19,.94,.33,79.63-1.24,80.96-1.56,1.33-.32,.77-5.11-.79-5.33-1.56-.22-80.17,1.7-80.17,1.7Z" style="opacity:.4;"></path><path d="M367.11,443.16c5.19-2.7,9.39,5.37,4.19,8.07-5.19,2.7-9.39-5.37-4.19-8.07Z" style="fill:#fff;"></path></g></g><g><path d="M366.56,181.19c.05,.9,2.43,9.06,3.66,21.28,.89,8.93,2,16.82,3.19,17.81,1.35,1.11,8.09,5.44,10.36,6.82,0,0-21.02,63.71-26.44,84.94-7.86,30.79-21.8,109.14-21.8,109.14l46,1.33s14.55-75.26,21.22-104.57c5.72-25.13,24.71-100.51,24.71-100.51,7.97-19.6-1.77-36.25-1.77-36.25,0,0-59.12-.03-59.12,0Z" style="fill:#455a64;"></path><g><g><path d="M369.86,217.76c4.89,2.58,9.48,5.88,13.84,9.26,.17,.13,0,.4-.19,.29-4.69-2.94-9.5-5.8-14.02-8.99-.36-.25-.01-.76,.36-.56Z" style="fill:#263238;"></path><path d="M373.69,183.1c.04-.17,.35-.16,.32,.02-.97,5.96-1.4,11.27-1.76,16.92-.17,2.63-.31,17.26,4.34,16.91,.78-.06,1.28-.74,1.57-1.85,.35-1.34,.1-3.09,.08-4.48-.03-3.07,.03-6.14,.25-9.2,.4-5.72,1.25-11.37,2.81-16.9,.05-.18,.32-.13,.29,.06-1.22,7.82-2.23,15.65-2.26,23.58-.02,3.81,.99,9.7-2.99,9.67-4.06-.03-5.16-9.81-5.25-12.46-.24-7.37,.91-15.12,2.6-22.28Z" style="fill:#263238;"></path><path d="M376.41,217.33c.26,1.02,.43,2.07,.55,3.12,.09,.81,.26,1.7,.04,2.5-.04,.15-.25,.14-.32,.02-.42-.75-.5-1.7-.67-2.53-.2-.97-.42-1.94-.59-2.91-.11-.65,.84-.83,1-.2Z" style="fill:#263238;"></path></g><path d="M390.37,374.31c1.57-8.86,3.39-17.69,5.31-26.48,1.08-4.97,2.34-9.88,3.67-14.79,.09-.34,.58-.18,.52,.16-.81,4.49-1.58,8.99-2.5,13.46-.92,4.46-1.83,8.92-2.72,13.38-1.75,8.83-8.7,40.03-8.9,41.27-.02,.12-.2,.06-.18-.05,.19-1.19,4.01-22.51,4.8-26.95Z" style="fill:#263238;"></path><path d="M352.05,331.13c1.67-8.33,3.92-16.54,6.19-24.72,4.56-16.46,9.93-32.69,15.28-48.91,1.54-4.67,3.08-9.35,4.63-14.02,.77-2.33,4.55-14.93,5.02-16.13,.05-.12,.23-.07,.2,.06-1.08,4.29-2.57,10.55-3.82,14.8-1.24,4.2-2.59,8.37-3.89,12.55-2.56,8.21-5.17,16.42-7.66,24.65-4.92,16.28-9.8,32.55-13.8,49.09-1.12,4.63-2.23,9.26-3.25,13.91-1.02,4.65-1.89,9.32-2.87,13.98-.03,.13-.24,.09-.23-.04,.84-8.48,2.52-16.87,4.2-25.22Z" style="fill:#263238;"></path><path d="M383.24,374.68c2.76-15.88,6.07-31.68,9.74-47.38,3.68-15.77,29.43-107.75,31.11-115.26,1.65-7.42,2.49-15.44,.77-22.93-.44-1.9-.99-3.76-1.72-5.57-.05-.13,.13-.23,.19-.1,6.75,15.1,1.2,29.17-2.48,43.3-3.67,14.1-21.03,77.56-24.88,93.38-3.85,15.81-7.28,31.72-10.3,47.72-3.03,16.05-5.57,32.16-8.16,48.28-.34,2.1-.6,4.21-.88,6.31-.02,.12-.2,.11-.19,0,1.93-15.98,4.03-31.89,6.79-47.75Z" style="fill:#263238;"></path></g></g></g></g><g><g><path d="M431.14,203.65c-.17,.19-76.55-1.9-77.2-2.65-.19-.22-2.38-9.74-1.21-15.51,4.35-21.58,18.95-73.36,24.86-81.06,6.94-9.03,17.78-4.86,20.26-3.2,11.55,7.74,36.01,78.15,37.47,84.81,1.27,5.77-3.89,17.29-4.18,17.61Z" style="fill:#004EFF;"></path><path d="M405.24,195.45l-5.27-12.21,.21,.11c-2.04,.31-4.12-.17-5.89-1.18-1.79-1.01-3.18-2.59-4.21-4.32l-.4-.64c-.12-.22-.22-.45-.33-.68l-.65-1.37c-.33-.95-.69-1.89-.96-2.86-.22-.98-.5-1.95-.67-2.94l-.45-2.97,.38,.35-18.95-.71,.47-.42c-.13,1.59-.4,3.12-.75,4.65-.35,1.53-.81,3.04-1.44,4.49-.63,1.44-1.37,2.88-2.43,4.1-1.05,1.22-2.37,2.25-3.91,2.84l.29-.33-2.94,12.22-.4-.53c7.99,.33,15.98,.74,24.02,1.15l24.3,1.25Zm0,0l-24.03-.72c-8.07-.24-16.19-.49-24.31-.82l-.52-.02,.12-.51,2.88-12.24,.06-.24,.24-.09c1.36-.54,2.54-1.46,3.5-2.59,.97-1.12,1.68-2.48,2.29-3.85,.61-1.39,1.06-2.85,1.41-4.33,.35-1.48,.62-3,.75-4.5l.04-.44,.43,.02,18.94,.83h.33l.05,.35,.4,2.93c.15,.97,.41,1.92,.61,2.88,.24,.95,.59,1.87,.89,2.8l.61,1.34c.1,.22,.2,.45,.31,.67l.38,.62c.97,1.68,2.28,3.21,3.96,4.19,1.66,.97,3.65,1.49,5.56,1.25l.16-.02,.05,.13,4.92,12.36Z" style="opacity:.1;"></path></g><g><g><path d="M408.71,108.4c21.43,17.68,47.24,48.99,39.42,57.63-7.15,7.89-35.67,5.9-55.4,1.32-3.75-.87-3.82-29.65,.3-29.55,7.57,.19,21.77,2.79,22.27,2.86,1.06,.13-7.87-14.18-16.21-28.09-9.31-15.52-2.62-14.27,9.63-4.17Z" style="fill:#d3766a;"></path><g><path d="M398.5,138.2s-11.6-.82-19.15-.94c-4.22-.07-11.45,.45-14.57,1.82-4.67,2.04-22.88,13.56-20.19,18.03,2.44,4.05,16.84-7.83,16.84-7.83,0,0-15.58,10.71-11.75,15.04,3.84,4.34,18.31-11.25,18.31-11.25,0,0-15.77,11.36-11.1,15.21,3.53,2.91,17.43-10.47,17.43-10.47,0,0-13.48,9.86-9.99,13,3.86,3.48,17.48-8.07,17.48-8.07,10.23,6.5,17.77,5.41,23.03,4,1.28-.34-6.35-28.55-6.35-28.55Z" style="fill:#d3766a;"></path><g><path d="M366.58,145.23c-1.88,1.19-3.78,2.38-5.55,3.74-1.76,1.35-3.48,2.77-5.11,4.28-4,3.71-5.92,6.66-5.78,6.49,3.28-4,9.52-8.94,11.28-10.3,1.76-1.35,3.45-2.79,5.21-4.14,.04-.03,0-.09-.05-.07Z" style="fill:#263238;"></path><path d="M371.59,151.51c-2.33,1.62-4.7,3.15-6.96,4.88-2.25,1.72-5.32,4.24-7.44,6.11-.16,.14-.02,.44,.15,.3,2.2-1.78,5.44-4.21,7.66-5.96,2.21-1.75,4.37-3.6,6.64-5.27,.04-.03,0-.08-.04-.05Z" style="fill:#263238;"></path><path d="M376.85,156.13c-3.69,2.3-6.95,5.28-10.07,8.28-.16,.15,.02,.18,.19,.04,3.3-2.81,5.86-5.05,9.97-8.19,.06-.05,0-.18-.08-.13Z" style="fill:#263238;"></path></g></g></g><g><path d="M398.32,100.75c14.52,6.08,56.12,48.77,51.94,62.98-4.18,14.21-49.16,6.37-49.16,6.37l-2.17-33.85s12.51,1.91,12.8,1.28c.29-.63-8.84-15.99-12.55-22.24-3.72-6.25-8.58-17.77-.86-14.53Z" style="fill:#004EFF;"></path><g><path d="M406.19,167.22c.04-4.87-.5-24.78-.91-29.08-.03-.3-.22-.35-.23-.04-.48,14.58,.75,24.34,.96,29.11,0,.12,.19,.13,.19,0Z" style="fill:#263238;"></path><path d="M398.62,135.85c1.32-.04,2.69,.2,4,.37,1.19,.15,2.37,.3,3.55,.47,2.57,.36,5.13,.78,7.69,1.22,2.56,.44,5.11,.91,7.65,1.41,2.54,.5,5.05,1.15,7.59,1.66,.12,.02,.07,.2-.05,.18-2.56-.46-5.16-.75-7.73-1.15-2.52-.39-5.04-.78-7.57-1.17-2.52-.39-5.04-.76-7.56-1.16-1.23-.19-2.46-.4-3.7-.6-1.2-.19-2.38-.43-3.57-.69-.03,0,.22,1.89,.12,1.86-.27-.08-.73-2.4-.43-2.41Z" style="fill:#263238;"></path><path d="M401.64,122.7c.83,.77,1.64,1.55,2.43,2.36,.15,.15,.28,.31,.42,.46-.25-.44-.5-.89-.75-1.33-.87-1.54-1.87-3.08-2.56-4.71-.03-.08,.08-.13,.13-.07,1.15,1.45,2.06,3.13,3.04,4.69,.96,1.54,1.94,3.08,2.87,4.64,.93,1.56,1.89,3.12,2.79,4.69,.88,1.54,1.85,3.1,2.5,4.76,.04,.1-.1,.16-.16,.08-1.2-1.42-2.14-3.07-3.1-4.65-.95-1.55-1.86-3.13-2.79-4.7-.39-.66-.77-1.32-1.14-1.98-.14-.14-.28-.29-.42-.42-.39-.39-.76-.79-1.13-1.2-.75-.85-1.46-1.72-2.17-2.6-.02-.03,.02-.07,.05-.04Z" style="fill:#263238;"></path><path d="M400.9,169.32c-.01-.24,.1-.31,.18-.06,.04,.14,.1,.39,.15,.53,1.52,.16,7.09,.95,8.44,1.13,2.85,.38,5.71,.66,8.58,.84,2.88,.18,5.75,.28,8.64,.26,4.01-.03,12.96-1.28,16.41-2.13,.11-.03,.13,.14,.02,.18-1.88,.74-8.81,2.37-16.49,2.68-2.86,.12-5.74,.09-8.6-.05-2.91-.15-5.83-.43-8.72-.84-1.45-.2-2.89-.45-4.32-.71-1.35-.25-2.8-.42-4.08-.95-.1-.04-.17-.14-.18-.25-.01-.21-.02-.42-.04-.62Z" style="fill:#263238;"></path></g></g></g><g><path d="M385.09,113.03s11.03-10.1,17.95-9.63l6.54,4.77s1.07,1.34,1.71,.14c1.58-2.97,2.12-10.28-4.02-15.23-5.61-4.54-17.47-4.05-25.4-2.24-7.62,1.74-11.93,6.05-9.78,11.05s13,11.13,13,11.13Z" style="fill:#004EFF;"></path><path d="M384.41,110.69s-8.46-6.48-9.23-10.18c-.77-3.7,6.69-6.96,11.48-8.17,7.41-1.88,12.4-1.24,16.38,2.81,3.98,4.06-18.63,15.54-18.63,15.54Z" style="opacity:.1;"></path><g><path d="M384.41,110.69c3.48,.4,10.07-4.44,11.9-9.57,.12-.35-.91-3.69-1.98-7.79-.64-2.5-1.29-5.29-1.7-7.88-.08-.53-15.64,6.52-15.64,6.52,0,0,2.46,5.18,3.15,9.71,.05,.38,.07,.74,.06,1.08,0,.05,0,.11,0,.18,0,2.07,.48,7.33,4.21,7.75Z" style="fill:#d3766a;"></path><path d="M380.2,102.76c0,.05,0,.12,.01,.18,.52-.01,1.07-.07,1.68-.18,9.54-1.73,10.17-14.11,10.18-17.22-2.82,.87-15.06,6.43-15.06,6.43,0,0,2.46,5.19,3.15,9.71,.05,.38,.07,.73,.05,1.08Z" style="fill:#263238;"></path></g><g><path d="M394.57,66.51c1.71,5.86-1.56,22.69-5.75,26.4-6.08,5.38-15.94,5.79-20.49-1.5-4.41-7.06,.25-28.92,4.92-32.29,6.89-4.95,18.79-1.27,21.32,7.38Z" style="fill:#d3766a;"></path><g><g><path d="M377.71,76.66s.08,.07,.07,.12c-.25,1.13-.35,2.46,.61,3.03,.03,.02,.02,.07-.02,.06-1.22-.41-1.07-2.18-.65-3.21Z" style="fill:#263238;"></path><path d="M378.95,75.66c1.85,.21,1.3,3.89-.41,3.7-1.69-.19-1.14-3.88,.41-3.7Z" style="fill:#263238;"></path></g><g><path d="M370.96,75.78s-.1,.04-.1,.09c-.13,1.15-.48,2.44-1.57,2.66-.03,0-.04,.06,0,.06,1.29,.01,1.73-1.71,1.67-2.82Z" style="fill:#263238;"></path><path d="M370.12,74.43c-1.82-.41-2.51,3.25-.83,3.63,1.66,.38,2.35-3.29,.83-3.63Z" style="fill:#263238;"></path></g><path d="M380.66,74.19c-.48-.2-.9-.47-1.35-.72-.52-.28-.96-.45-1.24-.99-.15-.29,0-.75,.27-.92,.63-.41,1.34-.22,1.98,.09,.69,.34,1.13,.78,1.45,1.47,.31,.68-.47,1.34-1.1,1.07Z" style="fill:#263238;"></path><path d="M369.14,71.14c.52,0,1.01-.1,1.52-.16,.58-.07,1.05-.06,1.52-.46,.25-.21,.28-.7,.1-.96-.43-.61-1.16-.7-1.87-.65-.77,.06-1.34,.3-1.9,.83-.54,.51-.06,1.41,.63,1.4Z" style="fill:#263238;"></path><path d="M377.14,87.44c-.31,.23-.64,.55-1.06,.53-.4-.03-.84-.27-1.18-.47-.03-.02-.08,.01-.06,.05,.23,.48,.81,.85,1.36,.84,.53-.01,.85-.42,1.05-.88,.03-.06-.06-.1-.1-.07Z" style="fill:#263238;"></path><path d="M376.45,83.84c-.79,.9-1.81,1.3-2.85,1.34-.47,.02-.95-.03-1.41-.14-.09-.02-.18-.04-.26-.07-.08-.02-.16-.04-.24-.08-.13-.04-.19-.16-.19-.29h0c0-.05,.01-.08,.03-.12h0l.02-.11c.11-.88,.39-2.21,.39-2.21-.35,.11-2.09,.61-2,.15,.8-3.77,1.68-7.96,3.27-11.54,.05-.12,.23-.06,.2,.06-.62,3.65-1.88,7.17-2.56,10.83,.55-.12,1.46-.36,1.92-.28,.12,.05-.6,2.55-.61,2.95,0,0,0,.02,0,.04,1.45,.41,2.63,.13,4.21-.65,.09-.05,.17,.04,.09,.12Z" style="fill:#263238;"></path><g><path d="M372.77,84.67s.62,1.17,1.63,1.71c.37,.2,.79,.32,1.25,.27,.95-.1,1.1-.94,1.04-1.68-.05-.61-.24-1.16-.24-1.16,0,0-1.52,1.05-3.67,.86Z" style="fill:#263238;"></path><path d="M374.41,86.37c.37,.2,.79,.32,1.25,.27,.95-.1,1.1-.94,1.04-1.68-.99-.05-2.06,.47-2.28,1.41Z" style="fill:#ff98b9;"></path></g></g><g><path d="M388.25,76.36c-.87-3.44,1.49-8.9-.07-10.53-3.37-3.54-11.27,2.12-16.36,1.75-4.94-.36-6.34-3.66-5.13-7.59,1.21-3.93,4.82-6.36,10.42-6.75,5.8-.4,10.83,2.31,13.53,4.36,0,0-1.09-2.1-.57-2.68,.51-.58,2.78,1.53,3.45,2.4,.68,.89,1.02,2.47,1.02,2.47,0,0,.92-.2,2.27-.06,1.25,.13,2.76,1.24,2.82,1.54,.07,.3-1.75,.39-3.01,.35,0,0,2.1,3.3,1.84,5.97-.26,2.66-5.41,15.01-6.42,15.07-1.3,.07-3.44-4.9-3.8-6.3Z" style="fill:#263238;"></path><path d="M396.16,61.27s-.11,.03-.07,.07c1.12,1.13,2,2.41,2.37,3.98,.44,1.82,.16,3.73-.38,5.5-1.06,3.44-3.02,6.49-4.76,9.6-.05,.09,.1,.18,.16,.09,2.06-3.18,4.17-6.65,5.14-10.34,.83-3.15,.38-6.88-2.46-8.9Z" style="fill:#263238;"></path><path d="M388.48,64.55c-1.43-.32-3.05-.31-4.5-.06-1.42,.24-2.68,1.02-3.99,1.6-2.92,1.3-6.09,2.24-9.31,1.79-.04,0-.05,.06,0,.06,2.93,.6,5.9-.05,8.63-1.15,1.38-.56,2.7-1.4,4.14-1.79,1.63-.44,3.34-.28,5-.18,.17,.01,.2-.23,.03-.26Z" style="fill:#263238;"></path><path d="M387.71,55.95c-1.9-1.17-4.01-2.01-6.17-2.59-2.07-.56-4.22-.9-6.36-.72-3.7,.31-7.25,2.37-8.4,6.06-.58,1.87-.55,3.97,.3,5.76,.06,.12,.24,.04,.19-.08-1.24-3.4-.34-7.34,2.64-9.55,3.2-2.37,7.43-2.23,11.12-1.34,2.32,.56,4.52,1.46,6.67,2.49,.01,0,.03-.02,.01-.02Z" style="fill:#263238;"></path></g><g><path d="M389.53,80.4s3.98-5.33,6.41-3.89c2.43,1.44-.68,9.25-3.62,10.24-2.94,.99-3.91-1.71-3.91-1.71l1.12-4.63Z" style="fill:#d3766a;"></path><path d="M394.99,78.72s.05,.06,.01,.08c-2.06,.76-3.19,2.61-4.01,4.55,.63-.73,1.47-1.12,2.45-.37,.05,.04,0,.12-.06,.11-.83-.2-1.43-.08-2.02,.57-.41,.46-.71,1.05-1.01,1.59-.1,.18-.43,.07-.35-.14l.02-.05c.03-2.6,2.16-6.17,4.96-6.34Z" style="fill:#263238;"></path></g></g><path d="M384.41,110.69s9.05-14.22,19.8-15.29l-1.17,8.01s-6.38-.2-17.95,9.63l-.68-2.34Z" style="fill:#004EFF;"></path><g><path d="M405.92,103.65c-1.95-.31-3.91,.06-5.77,.58-1.87,.53-3.64,1.34-5.34,2.28-1.71,.91-3.32,2.01-4.9,3.15l-2.3,1.8-2.22,1.91-.25,.21-.26-.15c-1.98-1.1-3.85-2.32-5.65-3.67-.9-.68-1.78-1.37-2.59-2.15-.81-.77-1.6-1.58-2.25-2.5,1.53,1.63,3.35,2.92,5.18,4.16,.92,.62,1.87,1.19,2.83,1.75,.96,.55,1.92,1.11,2.9,1.61l-.51,.07,2.22-1.97c.77-.63,1.55-1.24,2.34-1.85,.82-.56,1.63-1.14,2.47-1.67,.86-.5,1.7-1.04,2.6-1.46,1.76-.92,3.66-1.61,5.6-2.05,.48-.12,.98-.19,1.47-.27,.5-.05,.99-.1,1.49-.11,.99-.03,2,.03,2.94,.33Z" style="fill:#263238;"></path><path d="M410.23,108.71c-1.29-.7-2.48-1.53-3.65-2.39-1.16-.88-2.29-1.78-3.33-2.82,1.29,.7,2.48,1.53,3.65,2.39,1.16,.88,2.29,1.78,3.33,2.82Z" style="fill:#263238;"></path></g><g><path d="M389.03,107.4s1.13,4.08,1.59,10.06c.19,2.36-.24,10.91-2.89,10.75-2.65-.16,1.32-5.88,1.82-10.4,.5-4.59-.89-7.73-1.2-10.41h.68Z" style="fill:#004EFF;"></path><g style="opacity:.1;"><path d="M389.03,107.4s1.13,4.08,1.59,10.06c.19,2.36-.24,10.91-2.89,10.75-2.65-.16,1.32-5.88,1.82-10.4,.5-4.59-.89-7.73-1.2-10.41h.68Z"></path></g></g><g><path d="M379.38,107.4s-1.02,3.7-1.44,9.12c-.17,2.14,.22,9.89,2.62,9.75s-1.2-5.33-1.65-9.44c-.46-4.16,.8-7.01,1.09-9.44h-.61Z" style="fill:#004EFF;"></path><g style="opacity:.1;"><path d="M379.38,107.4s-1.02,3.7-1.44,9.12c-.17,2.14,.22,9.89,2.62,9.75s-1.2-5.33-1.65-9.44c-.46-4.16,.8-7.01,1.09-9.44h-.61Z"></path></g></g></g></g></g></g><g id="freepik--Character_1--inject-9"><g><g><g><g><path d="M190.29,463.71c-2.69,.87-79.38-.11-82.28-2-1.11-.7-1.62-11.88-1.85-25.41,0-.14,0-.28,0-.42-.05-2.79-.09-5.66-.09-8.57,0-.4,0-.8-.01-1.2l3.71-39.79,51.3,.5-5.05,39.41-.06,1.56-.31,8.16-.03,.84s29.19,13.5,32.15,15.92c2.94,2.41,5.21,10.14,2.52,11Z" style="fill:#ad6359;"></path><path d="M190.29,463.71c-2.69,.87-79.38-.11-82.28-2-1.11-.7-1.62-11.88-1.85-25.41,0-.14,0-.28,0-.42-.05-2.79-.09-5.66-.09-8.57,0-.4,0-.8-.01-1.2l49.96,.13-.06,1.56-.31,8.16-.03,.84s29.19,13.5,32.15,15.92c2.94,2.41,5.21,10.14,2.52,11Z" style="fill:#ebebeb;"></path><g><path d="M190.29,463.7c-1.38,.45-22.22,.4-42.59,0-4.09-.08-8.17-.17-12.05-.28-14.52-.4-26.53-.99-27.64-1.72-1.1-.69-1.61-11.57-1.84-24.85,0-.19-.01-.38-.01-.56,0-.14,0-.29-.01-.43h.06l49.43,.08-.02,.84s29.19,13.5,32.15,15.91c2.95,2.42,5.21,10.15,2.52,11Z" style="fill:#004EFF;"></path><path d="M190.29,463.7c-1.38,.45-22.22,.4-42.59,0-4.09-.08-8.17-.17-12.05-.28-14.52-.4-26.53-.99-27.64-1.72-1.1-.69-1.61-11.57-1.84-24.85,0-.19-.01-.38-.01-.56,0-.14,0-.29-.01-.43h.06l49.43,.08-.02,.84s29.19,13.5,32.15,15.91c2.95,2.42,5.21,10.15,2.52,11Z" style="opacity:.4;"></path><g><path d="M189.46,460.72c-12.92-.48-65.1-1.21-77.91-.7-.1,0-.11,.08,0,.08,12.8,.76,64.97,1.06,77.91,.83,.27,0,.28-.2,0-.21Z" style="fill:#263238;"></path><path d="M161.15,436.16c-5.07-1.01-11.31-.31-15.24,3.26-.15,.14,.05,.35,.21,.3,5.04-1.52,9.74-2.47,15-2.92,.37-.03,.39-.57,.03-.64Z" style="fill:#263238;"></path><path d="M164.79,438.42c-5.07-1.01-11.31-.31-15.24,3.26-.15,.14,.05,.35,.21,.3,5.04-1.52,9.74-2.47,15-2.92,.37-.03,.39-.57,.03-.64Z" style="fill:#263238;"></path><path d="M168.44,440.68c-5.08-1.01-11.31-.31-15.24,3.26-.15,.14,.05,.35,.21,.3,5.04-1.52,9.74-2.47,15-2.92,.37-.03,.39-.57,.03-.64Z" style="fill:#263238;"></path></g><path d="M147.71,463.7c-4.09-.08-8.17-.17-12.05-.28-14.52-.4-26.53-.99-27.64-1.72-1.1-.69-1.61-11.57-1.84-24.85,0-.19-.01-.38-.01-.56,0-.14,0-.29-.01-.43h.06c6.77,4.75,30.64,20.63,41.49,27.84Z" style="opacity:.1;"></path></g></g><g><path d="M158.6,436.12h-55.23s11.09-128.99,10.66-131.25c-.55-2.89-3.82-15.94-8.16-33-1.36-5.34-2.83-11.06-4.36-17-4.12-16.05-8.67-33.59-12.62-48.85-5.94-22.86-10.58-34.65-10.58-34.65h46.81s38.48,110.16,40.01,132.93c1.34,19.86-6.53,131.81-6.53,131.81Z" style="fill:#263238;"></path><g><path d="M156.15,426.69c-8.43-.17-6.01-.24-14.45-.32-4.13-.04-31.26-.27-35.12,.37-.09,.01-.09,.16,0,.17,3.86,.64,30.99,.4,35.12,.35,8.44-.08,6.01-.15,14.45-.33,.16,0,.16-.24,0-.25Z" style="fill:#37474f;"></path><path d="M124.41,296.99c-1.81-7.98-4.52-15.81-6.88-23.64-4.79-15.92-9.62-31.83-14.46-47.74-2.42-7.95-13.65-37.71-14.76-41.67-.45-1.61-.7-.73-.12,1.32,1.17,4.12,20.36,63.12,25.21,79.28,2.43,8.1,4.88,16.2,7.32,24.3,1.16,3.87,2.3,7.77,2.99,11.76,.71,4.16,.75,8.37,.49,12.58-.53,8.45-1.5,16.89-2.28,25.32-.78,8.45-1.56,16.9-2.34,25.35-1.55,16.81-3.11,33.63-4.62,50.44-.19,2.13-.38,4.26-.54,6.4-.05,.71,1.02,.66,1.1-.03,1.82-16.63,3.21-33.31,4.76-49.96,1.55-16.57,3.1-33.14,4.64-49.71,.39-4.16,.83-8.33,.83-12.51,0-3.88-.49-7.71-1.35-11.49Z" style="fill:#37474f;"></path></g><path d="M119.8,171.37c-3.24,25.14-9.43,66.3-13.94,100.5-10.57-41.43-27.56-100.49-27.56-100.49h41.5Z" style="fill:#37474f;"></path></g></g><g><g><path d="M133.17,464.46c-2.69,.88-79.38,.18-82.28-1.7-1.11-.7-1.66-11.88-1.94-25.41,0-.14,0-.28,0-.42-.06-2.79-.11-5.66-.13-8.57,0-.4,0-.8-.02-1.2-.18-19.53,1.22-39.79,1.22-39.79l50.13,.32-1.39,39.42-.05,1.56-.28,8.16-.03,.84s29.24,13.4,32.21,15.8c2.95,2.4,5.25,10.12,2.56,10.99Z" style="fill:#ad6359;"></path><path d="M133.17,464.46c-2.69,.88-79.38,.18-82.28-1.7-1.11-.7-1.66-11.88-1.94-25.41,0-.14,0-.28,0-.42-.06-2.79-.11-5.66-.13-8.57,0-.4,0-.8-.02-1.2l49.96-.05-.05,1.56-.28,8.16-.03,.84s29.24,13.4,32.21,15.8c2.95,2.4,5.25,10.12,2.56,10.99Z" style="fill:#ebebeb;"></path><g><path d="M133.17,464.46c-2.69,.88-79.38,.18-82.28-1.7-1.11-.7-1.66-11.88-1.94-25.41,0-.14,0-.28,0-.42l49.48-.1-.03,.84s29.24,13.4,32.21,15.8c2.95,2.4,5.25,10.12,2.56,10.99Z" style="fill:#004EFF;"></path><path d="M133.17,464.46c-2.69,.88-79.38,.18-82.28-1.7-1.11-.7-1.66-11.88-1.94-25.41,0-.14,0-.28,0-.42l49.48-.1-.03,.84s29.24,13.4,32.21,15.8c2.95,2.4,5.25,10.12,2.56,10.99Z" style="opacity:.4;"></path><g><path d="M132.33,461.48c-12.93-.43-65.1-.97-77.91-.42-.1,0-.1,.08,0,.08,12.8,.71,64.98,.82,77.91,.55,.27,0,.27-.2,0-.21Z" style="fill:#263238;"></path><path d="M103.93,437.02c-5.08-1-11.31-.27-15.23,3.32-.15,.14,.05,.35,.21,.3,5.03-1.54,9.73-2.51,14.99-2.98,.37-.03,.39-.57,.03-.64Z" style="fill:#263238;"></path><path d="M107.58,439.26c-5.08-1-11.31-.27-15.23,3.32-.15,.14,.05,.35,.21,.3,5.03-1.54,9.73-2.51,14.99-2.98,.37-.03,.39-.57,.03-.64Z" style="fill:#263238;"></path><path d="M111.24,441.51c-5.08-1-11.31-.27-15.23,3.32-.15,.14,.05,.35,.21,.3,5.03-1.54,9.73-2.51,14.99-2.98,.37-.03,.39-.57,.03-.64Z" style="fill:#263238;"></path></g></g></g><g><path d="M124.8,171.37s-1.07,16.42-6.2,34.16c-.41,1.47-.86,2.91-1.34,4.29,0,0-4.14,1.94-12.29,6.94,0,0-.54,18.02-1.07,38.12-.59,22.47-1.21,47.53-1.08,52.84,.47,19.89-2.46,129.23-2.46,129.23l-55.22,.24s9.96-122.11,9.88-129.39c-.11-11.71,2.66-63.46,4.8-101.2,1.31-23.25,2.38-35.2,2.38-35.2h62.59Z" style="fill:#263238;"></path><g><path d="M98.47,427.12c-8.44-.14-6.01-.22-14.45-.26-4.13-.02-31.26-.14-35.11,.52-.09,.01-.08,.16,0,.17,3.86,.62,30.99,.26,35.12,.21,8.44-.12,6.01-.18,14.45-.39,.16,0,.16-.24,0-.25Z" style="fill:#37474f;"></path><path d="M66.85,179.38c-1.01,30.81-2.08,55.64-3.45,86.44-1.38,30.9-3.23,61.79-5.81,92.62-1.44,17.22-2.8,41.45-4.65,58.63-.01,.12,.16,.16,.18,.04,4.01-30.56,6.25-68.35,8.22-99.11,1.97-30.75,3.3-61.55,4.34-92.35,.59-17.42,1.04-28.87,1.56-46.29,0-.25-.38-.23-.38,.02Z" style="fill:#37474f;"></path><path d="M68.97,199.4c1.36-.35,2.81-.46,4.2-.68,1.12-.18,2.23-.37,3.34-.62,2.08-.46,4.2-1.15,5.9-2.48,2.75-2.16,5.91-13.06,6.3-13.75,.66-1.19,.86-.14,.86-.03,0,1.27-2.9,10.81-4.02,12.6-2.05,3.26-5.71,4.58-9.37,5.04-1.05,.13-2.11,.21-3.16,.27-1.31,.07-2.7,.19-4,.03-.2-.02-.26-.31-.04-.37Z" style="fill:#37474f;"></path><g><path d="M117.08,210.08c-5.39,1.85-10.58,4.48-15.55,7.24-.2,.11-.07,.41,.14,.32,5.24-2.25,10.58-4.4,15.69-6.94,.4-.2,.13-.77-.28-.63Z" style="fill:#37474f;"></path><path d="M118.66,174.2c-.01-.18-.33-.22-.33-.03,.04,6.22-.35,11.69-.88,17.51-.24,2.7-2.41,17.61-7.09,16.53-.78-.18-1.18-.95-1.31-2.13-.15-1.42,.39-3.16,.62-4.57,.52-3.12,.94-6.25,1.2-9.41,.5-5.89,.53-11.77-.19-17.64-.02-.19-.3-.18-.3,.02,0,8.15-.21,16.28-1.42,24.36-.59,3.88-2.54,9.72,1.52,10.32,4.13,.61,6.81-9.17,7.31-11.85,1.41-7.47,1.46-15.53,.87-23.08Z" style="fill:#37474f;"></path><path d="M110.48,208.6c-.42,1-.76,2.04-1.05,3.09-.22,.81-.53,1.69-.44,2.54,.02,.16,.24,.18,.32,.07,.55-.7,.78-1.65,1.09-2.47,.36-.96,.73-1.91,1.06-2.87,.22-.64-.72-.98-.98-.36Z" style="fill:#37474f;"></path></g></g></g></g></g><g><g><g><path d="M117.35,112.09c7.33,25.06,17.58,49.64,22.37,53.03,7.43,5.25,42.57,10.1,54.31,8.93,3.84-.38,5.56-28.18,2.08-30.41-3.48-2.23-43.25-3.1-45.58-4.08-1.24-.52-13.64-18.79-22.88-30.87-8.59-11.23-12.52-4.2-10.3,3.41Z" style="fill:#ad6359;"></path><g><g><path d="M189.24,174.18c3.33,.45,18.77,1.19,23.11,.44,4.34-.76,16.68-3.83,16.44-7.22-.24-3.38-3.93-2.77-3.93-2.77,0,0,5-2.13,4.45-5.51-.55-3.38-6.25-2.24-6.25-2.24,0,0,4.98-2.56,4.19-5.89-.79-3.34-6.33-1.23-6.33-1.23,0,0,4.66-2.13,2.85-4.6-2.18-2.98-10.33,1.91-15.18,2.39-1.1,.11-22.51,.59-22.51,.59l3.16,26.04Z" style="fill:#ad6359;"></path><g><path d="M221.4,149.58c-6,3.58-9.25,4.11-16.13,3.94-.13,0-.17,.2-.03,.21,6.72,.78,10.89,.71,16.35-3.87,.27-.22,.1-.45-.19-.28Z" style="fill:#263238;"></path><path d="M223.54,156.58c-6.56,3.18-10.08,3.78-17.3,4.13-.1,0-.1,.18,0,.18,7.11,.25,11.27,.08,17.4-3.96,.28-.18,.19-.5-.11-.36Z" style="fill:#263238;"></path><path d="M224.5,164.63c-6.57,2.62-10.4,3.45-17.45,2.88-.17-.01-.2,.23-.04,.26,7.13,1.27,11.92,.27,17.55-2.93,.38-.22,.36-.37-.06-.21Z" style="fill:#263238;"></path></g></g><g><path d="M181.67,144.75s7.26-4.9,10.92-6.35c3.66-1.45,19.31-1.83,19.58,1.54,.35,4.36-8.63,6.36-13.16,6.76,0,0,.83,10.08-5.31,12.91s-12.03-14.85-12.03-14.85Z" style="fill:#ad6359;"></path><path d="M211.88,141.17c-2.54,4.21-8.52,4.35-12.89,5.07-.33,.05-.4,.34-.31,.59,.06,4.25-1.08,10.26-4.72,12.87-.11,.08-.01,.24,.11,.18,4.28-2.28,5.89-8.09,5.52-12.74,4.49-.67,10.48-1.08,12.34-5.95,.01-.03-.03-.05-.04-.02Z" style="fill:#263238;"></path></g></g></g><g><path d="M182.41,177.54l.38-37s-28.39-2.07-31.85-2.61c-1.47-.23-16.92-22.77-24.16-32.33-4.76-6.29-12.76-7.36-10.13,7.66,1.54,8.79,13.47,49.58,21.2,54.26,6.15,3.73,44.56,10.02,44.56,10.02Z" style="fill:#455a64;"></path><path d="M174.22,172.73c-.39-2.37-.38-12.31-.34-14.78,.03-2.42,.49-12.4,.53-14.94,0-.14,.2-.18,.2-.04,0,2.52,.32,12.49,.31,14.96,0,2.48-.14,12.39-.57,14.79-.01,.08-.12,.08-.13,0Z" style="fill:#263238;"></path><path d="M171.04,175.56c-11.03-1.93-29.32-5.69-33.19-8.03-7.74-4.69-19.67-45.47-21.21-54.27-1.33-7.58,.06-11.06,2.37-11.84l52.03,74.14Z" style="fill:#020100; opacity:.1;"></path></g></g><path d="M60,171.19c.12,.2,67.21,8.39,67.95,7.83,.27-.21,1.93-60.17-5.11-76.09-2.9-6.56-14.68-10.05-21.25-3.09-32.15,34.03-41.73,71.09-41.58,71.35Z" style="fill:#ebebeb;"></path><g><g><path d="M92.82,103.82c-15.14,13.47-35.7,38.28-34.78,44.64,2.31,15.94,14.14,36.01,20.32,43.43,3.61,4.33,27.4-13.6,24.39-17.61-4.76-6.32-16.07-26.25-17.36-28.85-.69-1.39,9.81-20.38,15.53-33.41,6.22-14.16-.72-14.77-8.1-8.2Z" style="fill:#ad6359;"></path><g><path d="M110.76,186.8c-.85-1.74,.06-2.2,3.16-.71,3.15,1.51,14.14,10.07,16.81,5.97,2.68-4.11-13.08-15.97-18.44-18.07-5.36-2.11-14.79-3.61-14.79-3.61,2.6,2.92,8.23,10.62,13.26,16.42Z" style="fill:#ad6359;"></path><path d="M78.2,191.77c7.63,7.97,16.64,18.35,28.61,21.73,2.35,.66,4.03-.13,4.03-.13,5.34,1.61,7.7-.43,7.7-.43,5.43-.02,7.57-2.44,7.57-2.44,0,0,6.29,1.82,8.02-1.8,1.96-4.05-7.26-5.82-11.73-9.89-10.25-9.33-22.21-25.46-24.9-28.44l-19.3,21.39Z" style="fill:#ad6359;"></path><g><path d="M104.79,196.59c3.07,2.69,6.02,5.4,9.44,7.66,3.75,2.47,7.78,4.23,11.83,6.11,.13,.06,.06,.24-.08,.2-7.88-2.25-15.95-7.67-21.32-13.84-.13-.15-.03-.27,.12-.14Z" style="fill:#263238;"></path><path d="M98.26,201.96c3.13,2.45,8.67,6.71,20.34,10.86,.04,.01,.03,.08-.02,.07-7.93-1.69-14.53-5.32-20.43-10.78-.18-.17-.09-.31,.12-.15Z" style="fill:#263238;"></path><path d="M94.8,204.91c5.49,3.96,9.45,5.76,16.03,8.42,.04,.02,.02,.08-.02,.07-7.79-2.24-10.37-3.94-16.17-8.33-.2-.15-.05-.32,.16-.17Z" style="fill:#263238;"></path></g></g></g><g><path d="M71.92,191l30.34-20.77-15.4-24.71c5.29-10.43,15.14-31.06,17.72-38.82,3.02-9.11-2.26-10.22-9.97-4.21-17.64,13.75-40.33,40.26-41.37,45.76-1.5,7.87,18.68,42.76,18.68,42.76Z" style="fill:#455a64;"></path><g><path d="M72.28,183.48c1.63-1.63,9.39-7.14,11.34-8.5,1.91-1.33,9.94-6.51,11.95-7.9,.11-.08,.25,.06,.14,.14-1.96,1.4-9.56,7.2-11.49,8.57-1.94,1.37-9.74,6.78-11.85,7.79-.07,.03-.13-.05-.08-.1Z" style="fill:#263238;"></path><g><path d="M99.05,120.42c-3.08,7.48-7.22,15.2-10.64,22.55-.24,.56-1.01,2.15-1.05,2.49,3.41,6.05,7.68,12.57,11.29,18.58l3.69,6.1,.03,.04-.04,.02-.83,.54,.78-.62v.07l-4.03-5.89c-3.82-5.8-8.06-12.06-11.54-18.04-.14-.31-.33-.48-.31-.9,.24-1.01,.71-1.89,1.13-2.82,3.41-7.14,7.87-15.15,11.54-22.13h0Z" style="fill:#263238;"></path><path d="M99.27,121.88c-.66,1.12-1.44,2.23-2.51,2.98,.83-.98,1.59-2.08,2.51-2.98h0Z" style="fill:#263238;"></path></g></g></g></g><g><path d="M108.89,96.49c-2.95,1.99-1.76,6.19,1.57,10.98,3.33,4.79,7.58,7.75,11.05,6.72s3.73-6.32,3.44-9.26c-.23-2.32-2.04-6.7-6.41-8.08-4.37-1.38-7.96-1.48-9.64-.35Z" style="fill:#455a64;"></path><g><path d="M120.19,112.36c-4,.24-10.32-7.4-12.1-12.61-.12-.36,.98-3.71,2.12-7.84,.68-2.51,1.38-5.32,1.84-7.93l15.68,6.83s-2.56,5.19-3.32,9.75c-.06,.38-.08,.74-.07,1.09,0,.05,0,.11,0,.18-.02,2.09-.27,10.29-4.13,10.53Z" style="fill:#ad6359;"></path><path d="M124.32,101.65s0,.11,0,.17c-.52,0-1.09-.08-1.7-.19-9.44-1.86-9.65-13.85-9.52-17.19l3.92,1.7,10.71,4.66s-2.56,5.19-3.32,9.75c-.06,.38-.09,.74-.08,1.09Z" style="fill:#263238;"></path></g><g><path d="M111.09,66.5c-1.88,5.87,.99,22.93,5.13,26.79,6,5.59,15.94,6.26,20.72-.98,4.63-7.02,.5-29.19-4.13-32.71-6.82-5.18-18.93-1.77-21.71,6.9Z" style="fill:#ad6359;"></path><g><g><path d="M127.25,76.99s-.08,.07-.07,.11c.2,1.15,.24,2.5-.75,3.03-.03,.02-.02,.07,.02,.06,1.25-.36,1.18-2.15,.81-3.21Z" style="fill:#263238;"></path><path d="M126.05,75.93c-1.88,.12-1.49,3.87,.24,3.75,1.71-.11,1.33-3.85-.24-3.75Z" style="fill:#263238;"></path></g><g><path d="M133.81,76.1s.1,.05,.1,.09c.08,1.16,.37,2.48,1.46,2.76,.03,0,.04,.07,0,.07-1.3-.05-1.67-1.8-1.56-2.92Z" style="fill:#263238;"></path><path d="M134.72,74.79c1.85-.33,2.38,3.39,.66,3.7-1.69,.3-2.21-3.42-.66-3.7Z" style="fill:#263238;"></path></g><path d="M124.66,74.08c.53-.06,1-.21,1.51-.32,.58-.13,1.05-.17,1.48-.62,.23-.24,.21-.73,0-.97-.5-.57-1.24-.59-1.95-.46-.76,.14-1.32,.44-1.82,1.03-.49,.57,.08,1.43,.78,1.34Z" style="fill:#263238;"></path><path d="M136,71.51c-.53-.03-1.01-.15-1.53-.23-.58-.1-1.06-.11-1.51-.54-.24-.23-.25-.71-.05-.97,.46-.6,1.21-.66,1.92-.57,.77,.09,1.34,.36,1.87,.92,.52,.54,0,1.43-.7,1.39Z" style="fill:#263238;"></path><path d="M126.79,87.47c.31,.24,.62,.59,1.05,.58,.41,0,.86-.24,1.22-.42,.03-.02,.08,.02,.06,.05-.26,.48-.86,.82-1.41,.78-.53-.04-.84-.47-1.02-.93-.02-.07,.06-.1,.11-.06Z" style="fill:#263238;"></path><path d="M127.65,83.87c.75,.94,1.76,1.39,2.81,1.49,.47,.05,.96,.01,1.43-.08,.09-.01,.19-.03,.27-.06,.08-.02,.16-.04,.25-.06,.13-.03,.2-.15,.21-.28h0c0-.05,0-.08-.02-.13h0v-.11c-.08-.9-.3-2.24-.3-2.24,.34,.13,2.08,.71,2.01,.24-.62-3.84-1.32-8.11-2.75-11.79-.04-.12-.23-.07-.21,.05,.45,3.71,1.56,7.32,2.07,11.04-.55-.15-1.46-.43-1.92-.38-.12,.05,.48,2.6,.48,3,0,0,0,.02,0,.04-1.48,.34-2.66,0-4.22-.85-.09-.06-.18,.03-.1,.12Z" style="fill:#263238;"></path><g><path d="M131.37,85.06s-.71,1.11-1.75,1.57c-.39,.17-.81,.26-1.26,.17-.93-.18-1.02-1.02-.9-1.75,.09-.6,.33-1.13,.33-1.13,0,0,1.43,1.16,3.59,1.14Z" style="fill:#263238;"></path><path d="M129.62,86.63c-.39,.17-.81,.26-1.26,.17-.93-.18-1.02-1.02-.9-1.75,.99,.03,2.01,.63,2.16,1.58Z" style="fill:#ff98b9;"></path></g></g><path d="M111.42,81.31c2.63,.44,3.91-3.22,4.39-4.89,.49-1.66-.87-8.8,.12-11.32,.99-2.52,3.51-4.13,5.68-3.73,2.17,.4,5.18,2.88,6.72,2.57,1.54-.31,1.55-3.71,2.63-3.82,2.38-.25,5.25,5.22,5.96,7.78,0,0-.39-11.63-12.69-11.49-11.22,.13-13.7,7.77-14.32,11.22-1.18,6.61,1.51,13.67,1.51,13.67Z" style="fill:#263238;"></path><g><path d="M116.21,80.96s-3.88-5.48-6.37-4.1c-2.49,1.39,.45,9.35,3.39,10.43,2.94,1.07,3.99-1.63,3.99-1.63l-1.01-4.7Z" style="fill:#ad6359;"></path><path d="M110.74,79.12s-.06,.06-.01,.08c2.06,.82,3.16,2.72,3.92,4.69-.62-.76-1.45-1.17-2.47-.44-.05,.04,0,.12,.06,.11,.84-.19,1.45-.04,2.02,.63,.41,.48,.68,1.08,.98,1.63,.1,.18,.43,.08,.36-.13l-.02-.05c.04-2.62-2.02-6.28-4.84-6.53Z" style="fill:#263238;"></path></g></g></g></g></g></g><g id="freepik--Character_2--inject-9"><g><g><g><g><g><path d="M329.4,463.39c-2.63,.85-80.23-.12-83.06-1.97-1.09-.68,4.36-73.7,4.36-73.7l50.15,.5-5.34,48.85s28.53,13.21,31.43,15.57c2.87,2.35,5.09,9.92,2.46,10.75Z" style="fill:#eb9481;"></path><path d="M329.39,463.39c-2.63,.85-80.23-.12-83.06-1.97-.51-.31,.38-15.98,1.48-32.79h48.62l-.92,8.43s28.53,13.21,31.43,15.57c2.87,2.36,5.09,9.91,2.45,10.75Z" style="fill:#ebebeb;"></path></g><g><path d="M330.25,464.45c-2.77,.9-81.13,.17-84.12-1.77-1.15-.72,.51-26.56,.51-26.71h48.48l-.03,.86s30.12,13.81,33.18,16.29c3.04,2.47,4.75,10.43,1.98,11.32Z" style="fill:#004EFF;"></path><g><path d="M330.04,461.38c-13.32-.45-67.07-1.01-80.27-.45-.11,0-.11,.08,0,.08,13.19,.74,66.94,.86,80.27,.58,.28,0,.28-.21,0-.22Z" style="fill:#263238;"></path><path d="M300.79,436.17c-5.23-1.03-11.65-.28-15.69,3.41-.16,.14,.05,.36,.22,.31,5.19-1.58,10.02-2.58,15.44-3.06,.38-.03,.4-.59,.03-.66Z" style="fill:#263238;"></path><path d="M304.55,438.49c-5.23-1.03-11.65-.28-15.69,3.41-.16,.14,.05,.36,.22,.31,5.19-1.58,10.03-2.58,15.44-3.06,.38-.03,.4-.59,.03-.66Z" style="fill:#263238;"></path><path d="M308.31,440.8c-5.23-1.03-11.65-.28-15.69,3.41-.16,.14,.05,.36,.22,.31,5.19-1.58,10.03-2.58,15.44-3.06,.38-.03,.4-.59,.03-.66Z" style="fill:#263238;"></path></g></g></g><g><path d="M301.77,404.18h-53.99s-2.71-5.37-2.05-13.29c2.16-25.88,9.88-81.1,9.56-82.78-.54-2.82-3.73-15.58-7.97-32.26-1.33-5.22-2.76-10.81-4.25-16.62-4.03-15.69-8.46-32.83-12.33-47.75-5.8-22.35-10.33-39.71-10.33-39.71h45.76s5.33,16.9,12.05,38.9c10.95,35.75,25.58,84.94,27.03,96.9,1.75,14.48,2.85,61.09,1.32,83.73-.51,7.55-4.8,12.88-4.8,12.88Z" style="fill:#37474f;"></path><g><path d="M299.26,394.33c-8.23-.17-5.87-.24-14.1-.32-4.03-.04-30.51-.27-34.27,.35-.08,.01-.08,.15,0,.17,3.76,.62,30.24,.39,34.27,.35,8.23-.08,5.87-.15,14.1-.32,.15,0,.15-.24,0-.24Z" style="fill:#263238;"></path><path d="M228.72,177.97l8.39,29.56,8.19,29.61c2.73,9.87,5.36,19.77,7.99,29.67,2.61,9.9,5.22,19.81,7.64,29.77,.58,2.5,1.18,4.99,1.67,7.52,.13,.63,.22,1.28,.33,1.92,.02,.35,.07,.74,.06,1.08l-.07,.96-.3,3.83-1.19,15.31-2.41,30.62-2.09,28.47,.05,.33-.61-.37,1.76-28.49,2.25-30.64,1.14-15.32,.28-3.83,.07-.96c0-.3-.04-.55-.05-.84-.11-.62-.19-1.23-.33-1.86-.49-2.49-1.1-4.98-1.68-7.47-4.8-19.89-10.15-39.67-15.35-59.48l-15.72-59.4Z" style="fill:#263238;"></path></g></g><path d="M265.06,171.77c-3.18,24.58-14.67,65.4-19.08,98.83-10.32-40.5-25.58-98.83-25.58-98.83h44.66Z" style="fill:#263238;"></path></g><g><g><g><path d="M154.78,463c2.65,.83,67.83,1.12,70.66-.77,1.09-.7,1.47-11.69,1.55-24.98,0-.14,0-.28,0-.42,.02-2.74,6.32-48.78,6.32-48.78l-49.24,1-5.69,48.36,.04,.82s-18.39,11.52-21.28,13.93c-2.86,2.4-5.01,10.02-2.36,10.83Z" style="fill:#eb9481;"></path><path d="M227.9,428.63c-.55,4.4-.91,7.55-.91,8.2v.42c-.09,13.29-.47,24.28-1.55,24.98-2.82,1.89-68.01,1.6-70.66,.78-2.65-.81-.51-8.45,2.37-10.84,2.89-2.4,21.27-13.93,21.27-13.93l-.04-.83,1.04-8.78h48.49Z" style="fill:#ebebeb;"></path></g><g><path d="M151.56,464.45c2.77,.9,72.87,.17,75.86-1.77,1.15-.72-.51-26.56-.51-26.71h-48.48l.03,.86s-21.86,13.81-24.92,16.29c-3.04,2.47-4.75,10.43-1.98,11.32Z" style="fill:#004EFF;"></path><g><path d="M151.77,461.38c13.32-.45,58.81-1.01,72.01-.45,.11,0,.11,.08,0,.08-13.19,.74-58.69,.86-72.01,.58-.28,0-.28-.21,0-.22Z" style="fill:#263238;"></path><path d="M176.02,437.42c5.14-1.43,11.59-1.19,15.91,2.19,.17,.13-.02,.37-.19,.33-5.29-1.17-10.2-1.8-15.63-1.86-.38,0-.45-.56-.08-.66Z" style="fill:#263238;"></path><path d="M172.45,440.02c5.14-1.43,11.59-1.19,15.91,2.19,.17,.13-.02,.37-.19,.33-5.29-1.17-10.2-1.8-15.63-1.86-.38,0-.45-.56-.08-.66Z" style="fill:#263238;"></path><path d="M168.88,442.62c5.14-1.43,11.59-1.19,15.91,2.19,.17,.13-.02,.37-.19,.33-5.29-1.17-10.2-1.8-15.63-1.85-.38,0-.45-.56-.08-.66Z" style="fill:#263238;"></path></g></g></g><g><path d="M265.06,171.77s-6.94,42.29-7.41,43.65c0,0-2.58,1.22-7.23,3.37,0,0-12.04,132.43-12.04,171.49,0,6.56-4.56,13.68-4.56,13.68l-54.25,.22s-4-7.89-3.79-14.79c1.65-54.9,30.08-217.62,30.08-217.62h59.21Z" style="fill:#37474f;"></path><g><g><path d="M231.96,394.31c-8.29-.14-5.91-.21-14.2-.26-4.06-.02-30.71-.14-34.5,.5-.08,.01-.08,.16,0,.17,3.79,.61,30.44,.27,34.5,.21,8.29-.12,5.91-.17,14.19-.38,.16,0,.15-.24,0-.24Z" style="fill:#263238;"></path><path d="M259.9,214.1c-5.4,2.15-10.57,5.07-15.51,8.12-.19,.12-.05,.42,.16,.32,5.23-2.54,10.58-4.99,15.66-7.82,.4-.22,.1-.79-.32-.62Z" style="fill:#263238;"></path><path d="M257.91,189.88c-.85,5.06-1.33,10.2-1.9,15.3-.14,1.22-.28,2.45-.42,3.67-.12,1.12-.25,2.25-.88,3.22-1.1,1.7-3.07,2.5-4.86,3.28-.21,.09-.12,.42,.1,.34,1.81-.57,3.82-1.31,5.16-2.73,1.63-1.72,1.57-4.33,1.83-6.54,.62-5.47,1.21-11.01,1.19-16.52,0-.13-.21-.16-.23-.03Z" style="fill:#263238;"></path><path d="M251.75,191.43c-.18,3.64-.59,7.29-.89,10.93-.15,1.79-.28,3.59-.39,5.39-.11,1.83-.32,3.7-.27,5.53,0,.12,.2,.15,.22,.02,.3-1.73,.34-3.53,.48-5.28,.15-1.84,.28-3.69,.38-5.53,.21-3.68,.31-7.39,.64-11.06,.01-.11-.17-.11-.18,0Z" style="fill:#263238;"></path></g><polygon points="249.31 224.2 246.4 249.02 243.37 273.82 237.13 323.41 228.42 389.39 235.98 323.26 242.49 273.71 245.84 248.95 249.31 224.2" style="fill:#263238;"></polygon></g></g></g></g><g><g><g><path d="M244.16,118.62c5.33,15.31,17.07,40.14,23.92,46.57,7.62,7.15,36.49-5.37,54.96-12.61,3.67-1.44-5.73-30.65-9.57-28.91-10.04,4.54-31.14,15.56-33.41,14.55-1.85-.83-15.92-15.9-23.76-24.49-12.48-13.68-15.89-5.88-12.14,4.89Z" style="fill:#eb9481;"></path><g><path d="M314.84,155.12c-3.73-.44-10.64-24.16-8.37-27.27,.43-.58,1.46-1.49,2.9-2.54h0s4.71-7.2,6.5-14.57c1.52-6.19,3.06-15.55,6.42-14.86,4.9,.99,4.37,13.07,3.65,19.98,3.47-1.5,6.59-2.47,8.62-2.36,6.73,.35,9.01,30.6,3.44,34.61-5.37,3.86-19.43,7.46-23.16,7.02Z" style="fill:#eb9481;"></path><g><path d="M324.08,115.03c-1.38,3.22,3.21,3,3.21,3,0,0-6.52,1.91-6.66,5.78-.12,3.73,5.41,3.27,5.81,3.24-.34,.1-6.29,2.02-6.03,5.92,.28,4.06,5.75,2.64,6.1,2.55-.29,.2-4.14,2.91-3.26,5.83,1.51,5.02,11.53-1.65,15.65-.64,0,0-.91,7.18-.9,7.39,0,0,9.66-6.15,10.72-11.78,.55-2.97-2.1-4.07-2.1-4.07,0,0,3.34-1.64,3.22-4.72-.06-1.58-2.65-2.89-2.65-2.89,0,0,2.62-1.42,2.35-4.16-.21-2.18-2.77-3.15-2.77-3.15,0,0,1.88-2.53,.94-4.69-1.88-4.36-20.68-4.5-23.63,2.4Z" style="fill:#eb9481;"></path><g><path d="M346.39,117.11c.06,0,.08-.08,.02-.1-6.17-1.55-13.43-1.37-19.37,1-.19,.08-.15,.43,.08,.38,6.59-1.28,12.55-1.88,19.27-1.29Z" style="fill:#263238;"></path><path d="M347.28,124.6c.07,0,.08-.11,0-.13-6.37-1.57-14.53-1.14-21.06,2.41-.22,.12-.3,.46-.03,.34,4.52-2.03,15.04-3.17,21.09-2.61Z" style="fill:#263238;"></path><path d="M326.14,135.92c6.39-3.16,13.15-3.95,20.21-3.76,.09,0,.09-.13,0-.15-3.43-1.03-7.94-.68-11.43-.11-3.34,.55-6.25,1.71-8.9,3.8-.1,.08-.03,.29,.11,.22Z" style="fill:#263238;"></path></g><path d="M327.19,117.96c-.23,.09,.16,.33-.07,.43-.97,.43-6.6,3.49-6.15,5.73,.36,1.79,3.03,2.55,4.16,2.44l2.86-.28-2.59,1.26c-1.13,.55-2.25,1.29-3.13,2.17-.89,.88-1.53,1.99-1.46,3.11,.06,1.18,.75,2.12,1.89,2.36,1.11,.29,2.46,.12,3.63-.21l3.27-.93-2.78,1.94c-.75,.53-1.49,1.18-2.09,1.89-.59,.71-1.07,1.53-1.15,2.36-.08,.81,.29,1.68,.97,2.06,.71,.42,1.7,.45,2.65,.39,1.93-.15,3.85-.71,5.78-1.18,.97-.24,1.94-.48,2.92-.68,.98-.18,2-.37,2.98-.13-.99-.14-1.97,.16-2.92,.4-.95,.27-1.9,.58-2.84,.9-1.89,.63-3.8,1.24-5.84,1.51-1.01,.1-2.12,.17-3.19-.37-1.1-.56-1.65-1.84-1.55-2.99,.1-1.18,.7-2.15,1.35-2.97,.68-.82,1.42-1.51,2.29-2.14l.5,1.01c-1.38,.4-2.79,.63-4.29,.29-.74-.17-1.5-.6-1.99-1.26-.5-.66-.71-1.43-.75-2.2-.07-1.6,.84-2.98,1.84-3.94,1.03-.99,2.2-1.73,3.48-2.33l.27,.98c-1.45,.09-4.52-.43-5.43-3.14-.66-3.71,6.1-6.12,7.36-6.48Z" style="fill:#263238;"></path><path d="M327.29,118.03c-.75-.13-1.47-.33-2.05-.63-.58-.3-.93-.81-.95-1.35-.04-.54,.27-1.18,.64-1.77,.39-.59,.83-1.19,1.31-1.79-.71,.3-1.36,.74-1.91,1.32-.53,.57-1.03,1.32-1.02,2.29,.04,.48,.22,.93,.52,1.29,.31,.35,.71,.59,1.12,.71,.81,.25,1.62,.17,2.35-.07Z" style="fill:#263238;"></path></g></g></g><g><path d="M272.57,128.62l-19.55,21.62s-11.09-30.08-11.86-39.84c-.86-10.99,4.95-9.03,12.97-2.29s18.43,20.51,18.43,20.51Z" style="fill:#004EFF;"></path><path d="M251.76,143.62c.56-.85,6.55-7.69,7.88-9.14,1.33-1.46,6.72-7.47,8.23-8.86,.07-.06,.17,.02,.11,.09-1.21,1.64-6.63,7.72-7.96,9.23-1.33,1.51-7.4,8.14-8.17,8.78-.07,.05-.13-.04-.09-.1Z" style="fill:#263238;"></path><path d="M268.26,133.39l-15.24,16.86s-11.09-30.08-11.86-39.84c-.28-3.53,.14-5.72,1.08-6.85l26.02,29.83Z" style="opacity:.1;"></path></g></g><path d="M273.03,186.77c-1,1.24-71.51,5.51-71.89,5.1-1.04-1.11,14.67-65.54,24.47-83.04,4.88-8.72,16.95-12.11,24.13-1.84,9.68,13.85,24.15,78.68,23.28,79.77Z" style="fill:#004EFF;"></path><g><path d="M219.8,112.06c-17.85,20.84-37.93,50.42-32.85,58.42,5.66,8.91,31.26-10.85,31.97-12.29,.79-1.61,8.23-20.61,12.76-39.6,4.97-20.83-7.47-11.68-11.88-6.53Z" style="fill:#eb9481;"></path><g><g><path d="M188.44,171.49c6.2,4.34,23.48,6.43,53.1,1.74,4.1-.65-3.66-29.27-8.07-28.81-5.56,.59-27,4.08-28.54,4.53-12.96,3.82-20.7,19.59-16.49,22.54Z" style="fill:#eb9481;"></path><g><path d="M225.83,146.66s1.8-.53,10.84-4.88c6.25-3.01,23.4-6.33,37.68,6.95,5.47,5.09,4.29,11.15-2.33,6.87-4.66-3.01-7.64-5.5-9.43-6.06,0,0,2.71,8.05-.18,12.04-1.29,1.78-4.94,6.56-8.31,9.87,0,0-.92-.54-1.99-1.39,0,0-3.81,4.9-10.56,3.17l-15.71-26.57Z" style="fill:#eb9481;"></path><g><path d="M243.1,139.86c3.51,.97,10.9,3.14,16.33,7.03,6.03,4.31,16.49,14.25,13.26,18.67-2.37,3.24-6.69-.2-6.69-.2,0,0,3.46,5.02,.68,7.48-2.53,2.24-5.72-.62-5.72-.62,0,0,1.57,3.4-1.28,5.09-3.44,2.03-6.17-5.44-11.43-6.39-1.18-.21-5.14-31.06-5.14-31.06Z" style="fill:#eb9481;"></path><path d="M253.81,152.5c3.15,1.45,9.45,6.58,12.2,12.7,.06,.14,0,.26-.09,.15-4.46-6.1-9.77-10.89-12.15-12.79-.03-.03,0-.07,.04-.06Z" style="fill:#263238;"></path><path d="M249.63,158.71c2.59,1.53,8.85,7.11,11.42,13.41,.06,.14-.02,.26-.1,.14-4.4-6.56-9.11-11.45-11.37-13.49-.03-.03,.01-.07,.04-.05Z" style="fill:#263238;"></path></g></g><path d="M260.95,172.26c3.32,2.58,7.79,.99,6.29-3.61-.47-1.67-1.61-3.24-2.63-4.62l1.5,1.09c4.73,3.63,8.63,.15,5.69-4.99-3.12-4.91-7.84-8.99-12.24-12.73,2.72,1.42,6.13,3.09,8.6,4.86,2.18,1.5,4.11,3.62,6.76,4.24,1.89,.53,2.97-.77,2.42-2.59-1.38-4.29-5.49-7.07-9.08-9.51-3.05-1.96-6.38-3.52-9.94-4.39,3.61,.64,7.03,2.12,10.2,3.96,3.81,2.45,8.12,5.21,9.64,9.72,.73,2.39-.87,4.34-3.44,3.67-2.83-.62-4.82-2.74-7.11-4.31-1.49-1.01-3.07-1.92-4.65-2.77l.54-.82c2.6,2.3,4.84,4.8,7.09,7.4,1.49,1.77,2.83,3.83,3.06,6.23,.2,1.87-1.05,3.89-2.97,4.2-1.82,.26-3.54-.67-4.94-1.71l.42-.41c1.27,2.01,2.54,4.68,1.29,6.99-1.49,2.36-4.71,1.68-6.5,.1h0Z" style="fill:#263238;"></path></g><path d="M195.27,155.84c1.06-1.05,4.2-4.41,8.95-6.4,4.15-1.74,16.38-3.49,19.39-3.65,.08,0,.1,.08,.03,.1-2.63,.7-14.38,2.53-18.83,4.32-4.65,1.88-8.4,4.79-9.46,5.7-.05,.05-.13-.02-.08-.07Z" style="fill:#263238;"></path></g><g><path d="M226.15,142.51l-28.61-5.56s20.02-25.04,27.99-30.74c8.96-6.42,10.29-.43,8.66,9.92-1.63,10.35-8.03,26.38-8.03,26.38Z" style="fill:#004EFF;"></path><g><path d="M202.56,132.44c1.02,.04,9.96,1.63,11.9,2.02,1.94,.39,9.87,1.9,11.83,2.47,.09,.03,.07,.15-.02,.14-2.03-.19-10.03-1.69-12.01-2.04-1.98-.35-10.8-2.13-11.74-2.46-.08-.03-.03-.13,.04-.13Z" style="fill:#263238;"></path><path d="M224.85,142.18c.87,.1,1.41,.15,1.41,.15,1.05-3.93,2.38-7.96,3.61-11.84,1.24-3.95,2.6-7.86,3.89-11.8,.02-.06,.11-.03,.09,.03-.59,2.28-1.19,4.54-1.8,6.8,.13-.27,.26-.54,.38-.8,.45-.96,.92-1.9,1.34-2.87,.03-.08,.16-.04,.13,.04-.33,1.01-.69,2.02-1.15,2.98-.33,.68-.7,1.32-1.07,1.97-.36,1.29-.71,2.59-1.11,3.88-1.21,3.95-2.26,8.43-3.77,12.27,0,0-1.04-.22-2.01-.62-.12-.05-.07-.21,.06-.19Z" style="fill:#263238;"></path></g></g></g><g><path d="M253.52,83.68s-.27,4.07,.06,5.5c.34,1.42,3.48,2.97,3.48,2.97,0,0-3.65,1.2-4.68,.94-1.03-.27-2.63-2.94-2.63-2.94,0,0,1.44,4.26,2.9,4.51,.91,.16-2.25,.12-2.25,.12,0,0-1.68-.1-2.73-1.34-1.05-1.24,5.83-9.76,5.83-9.76Z" style="fill:#263238;"></path><g><path d="M245.72,112.18c-3.54,1.99-10.6-2.78-13.42-7.41-.19-.32-.32-13.23-.44-15.84-.03-.53,16.53,3.21,16.53,3.21,0,0-1.35,5.54-1.11,10.08,.02,.38,.08,.73,.16,1.06,0,.05,.02,.11,.03,.18,.43,2.02,.06,7.7-1.75,8.72Z" style="fill:#eb9481;"></path><path d="M248.39,92.14s-.24,.99-.5,2.47c-2.91,4.49-7.55,8.4-15.73,7.59-.12-3.98-.21-11.37-.3-13.26l16.53,3.2Z" style="fill:#263238;"></path></g><g><path d="M251.7,68.52c1.91,5.76-.76,22.58-4.79,26.41-5.85,5.56-15.63,6.31-20.4-.77-4.63-6.86-.77-28.73,3.76-32.23,6.67-5.16,18.61-1.92,21.43,6.59Z" style="fill:#eb9481;"></path><g><g><path d="M236.15,78.75s.08,.07,.07,.11c-.21,1.13-.26,2.46,.71,2.99,.03,.02,.02,.07-.02,.06-1.23-.37-1.14-2.13-.76-3.17Z" style="fill:#263238;"></path><path d="M237.34,77.72c1.84,.14,1.43,3.82-.28,3.69-1.68-.13-1.26-3.81,.28-3.69Z" style="fill:#263238;"></path></g><g><path d="M229.65,77.7s-.1,.04-.1,.09c-.09,1.14-.39,2.44-1.47,2.7-.03,0-.04,.07,0,.06,1.28-.03,1.66-1.76,1.56-2.86Z" style="fill:#263238;"></path><path d="M228.76,76.4c-1.82-.35-2.38,3.31-.69,3.64,1.66,.32,2.22-3.34,.69-3.64Z" style="fill:#263238;"></path></g><path d="M238.64,75.63c-.52-.07-.98-.23-1.48-.35-.57-.14-1.03-.2-1.44-.65-.22-.24-.19-.72,.03-.96,.5-.55,1.24-.55,1.93-.4,.75,.16,1.28,.47,1.76,1.06,.47,.57-.12,1.4-.8,1.3Z" style="fill:#263238;"></path><path d="M227.12,74.21c.52,.06,1,.03,1.52,.04,.58,0,1.05,.08,1.56-.26,.27-.18,.37-.65,.22-.93-.34-.66-1.06-.85-1.76-.88-.76-.04-1.36,.12-1.98,.57-.6,.43-.25,1.38,.44,1.46Z" style="fill:#263238;"></path><path d="M236.08,89.21c-.3,.24-.62,.57-1.04,.56-.4-.01-.85-.24-1.19-.43-.03-.02-.08,.02-.06,.05,.25,.47,.84,.82,1.38,.78,.53-.03,.83-.45,1.01-.91,.02-.06-.06-.1-.1-.06Z" style="fill:#263238;"></path><path d="M235.27,85.66c-.75,.92-1.75,1.35-2.79,1.43-.46,.04-.94,0-1.4-.09-.09-.01-.18-.03-.26-.06-.08-.02-.16-.04-.25-.07-.13-.03-.19-.15-.2-.28h0s0-.08,.02-.12h0v-.11c.09-.88,.33-2.21,.33-2.21-.34,.12-2.06,.67-1.98,.22,.66-3.77,1.39-7.96,2.84-11.58,.04-.12,.23-.07,.2,.05-.49,3.65-1.62,7.19-2.17,10.84,.54-.14,1.44-.41,1.9-.35,.12,.05-.5,2.55-.51,2.95,0,0,0,.02,0,.04,1.45,.36,2.62,.04,4.16-.79,.09-.06,.17,.03,.1,.11Z" style="fill:#263238;"></path><g><path d="M231.66,86.75s.71,1.11,1.75,1.56c.38,.17,.81,.25,1.26,.17,.93-.18,1.01-1.01,.89-1.74-.1-.6-.33-1.13-.33-1.13,0,0-1.42,1.16-3.57,1.14Z" style="fill:#263238;"></path><path d="M233.41,88.31c.38,.17,.81,.25,1.26,.17,.93-.18,1.01-1.01,.89-1.74-.99,.03-2,.63-2.15,1.58Z" style="fill:#ff9abb;"></path></g></g><path d="M251.3,83.03c-3.05-.88-4.58-11.11-4.58-11.11l-.6,5.62s-2.34-1.9-3.44-4.42c-.78-1.8-.53-4.32-.24-5.56,0,0-3.38,3.54-7.28,4.56-1.43,.38-11.24-.81-11.24-1.47,0-1.96,3.43-7.82,6.09-9.62,3.06-2.08,7.44-4.08,13.74-1.65s7.95,6.49,8.88,9.64c.93,3.15-.21,14.34-1.33,14.02Z" style="fill:#263238;"></path><g><path d="M248.44,82.26s3.77-5.43,6.23-4.09c2.46,1.34-.36,9.21-3.24,10.29-2.88,1.09-3.94-1.56-3.94-1.56l.95-4.64Z" style="fill:#eb9481;"></path><path d="M253.81,80.4s.06,.06,.02,.08c-2.02,.83-3.08,2.71-3.82,4.66,.6-.75,1.42-1.16,2.42-.45,.05,.04,0,.12-.05,.11-.83-.17-1.43-.03-1.99,.64-.39,.47-.66,1.07-.95,1.61-.09,.18-.42,.09-.35-.12l.02-.05c-.06-2.58,1.93-6.2,4.7-6.47Z" style="fill:#263238;"></path></g><g><path d="M235.68,58.29c1.89-.82,4.14-1.66,6.76-1.98,2.62-.32,10.85,.36,12.82,2.03,1.97,1.66,2.45,9.43,2.5,10.57,.05,1.14-.5,8-2.99,9.64-2.5,1.64-2.67-10.02-6.58-13.91s-12.51-6.35-12.51-6.35Z" style="fill:#004EFF;"></path><path d="M235.68,58.3s8.6,2.46,12.51,6.35c3.91,3.88,4.09,15.55,6.58,13.91,1.1-.73,1.64-1.81,2.1-3.63-.5-3.41-1.85-8.71-4.68-12.39-2.64-3.45-7.21-5.2-12.11-5.78-1.64,.4-3.1,.98-4.4,1.54Z" style="opacity:.1;"></path><g><path d="M254.05,85.48c-.21-3.11-3.32-11.45-6.61-16.24-3.29-4.79-13.03-7.63-14.39-7.55-3.31,.17-4.44,1.17-4.96,.87-.52-.3,2.9-2.77,3.83-3.32,.93-.55,3.45-1.85,4.88-1.81,1.44,.04,10.3,.97,13.51,4.77,3.2,3.8,7.71,14.42,6.86,17.13-.2,.65-1.07,1.06-1.35,1.99-.37,1.21-.63,2.61-1,3.46-.3,.68-.75,.98-.77,.71Z" style="fill:#004EFF;"></path><g><path d="M246.68,67.1c.77-.47,1.48-.98,2.16-1.57,.67-.58,1.34-1.23,1.85-1.95,.04-.05,.12,0,.09,.05-.47,.82-.98,1.56-1.68,2.2-.67,.61-1.49,1.11-2.34,1.43-.09,.04-.15-.11-.07-.16Z" style="fill:#263238;"></path><path d="M254.09,82.37c.09-.22,.24-.42,.34-.64,.12-.25,.23-.5,.29-.77,.13-.51,.12-1.03,.36-1.51,.19-.38,.46-.71,.73-1.03,.31-.37,.61-.76,.62-1.26,0-.07,.1-.07,.1,0,0,.94-.64,1.61-1.05,2.4-.27,.5-.26,1.08-.43,1.61-.15,.45-.41,1.03-.83,1.29-.06,.04-.17-.02-.14-.1Z" style="fill:#263238;"></path><path d="M253.04,79.01c.3-.35,.61-.67,.88-1.05,.25-.37,.47-.76,.67-1.16,.2-.39,.36-.8,.55-1.2,.22-.47,.51-.92,.71-1.4,.03-.06,.12-.01,.09,.05-.21,.5-.33,1.03-.53,1.54-.17,.43-.38,.86-.6,1.27-.21,.39-.46,.77-.74,1.11-.27,.33-.62,.69-1.01,.88-.03,.01-.06-.02-.04-.04Z" style="fill:#263238;"></path><path d="M251.93,75.96c.64-.54,1.24-1.19,1.7-1.9,.45-.7,.87-1.43,1.28-2.15,.03-.05,.12-.02,.1,.04-.3,.82-.59,1.63-1.08,2.35-.23,.34-.49,.7-.8,.98-.34,.31-.73,.55-1.12,.77-.05,.03-.12-.04-.07-.08Z" style="fill:#263238;"></path><path d="M250.71,73.05c.35-.21,.58-.51,.83-.83,.27-.35,.53-.7,.79-1.06,.24-.35,.49-.69,.73-1.03,.24-.35,.48-.71,.56-1.14,.01-.06,.1-.05,.1,.01-.02,.43-.18,.83-.36,1.21-.21,.42-.43,.83-.71,1.21-.27,.38-.56,.74-.87,1.08-.28,.29-.6,.6-1.01,.68-.08,.02-.13-.09-.06-.13Z" style="fill:#263238;"></path><path d="M249.84,69.35c.29-.28,.58-.56,.84-.87,.27-.3,.52-.62,.76-.94,.26-.33,.53-.66,.76-1.01,.04-.06,.12-.01,.09,.05-.17,.39-.35,.77-.58,1.13-.23,.35-.48,.68-.76,1-.27,.31-.55,.62-.86,.89-.3,.26-.63,.57-1.01,.7-.06,.02-.12-.05-.08-.1,.22-.32,.56-.58,.84-.85Z" style="fill:#263238;"></path><path d="M244.31,65.32c.31-.38,.61-.75,.95-1.1,.35-.36,.72-.69,1.11-1,.76-.61,1.55-1.18,2.42-1.61,.05-.02,.11,.04,.06,.08-1.48,1.25-3.01,2.44-4.47,3.71-.05,.04-.12-.02-.07-.07Z" style="fill:#263238;"></path><path d="M242.44,62.65c.32-.37,.67-.71,1.06-1,.82-.61,1.74-1.05,2.67-1.47,.06-.03,.11,.05,.05,.09-.81,.53-1.63,1.05-2.4,1.63-.38,.28-.77,.58-1.12,.9-.35,.33-.62,.72-.96,1.06-.03,.03-.08,0-.07-.04,.14-.44,.47-.84,.76-1.18Z" style="fill:#263238;"></path><path d="M239.86,61.41c.29-.37,.62-.69,.98-.99,.68-.57,1.45-1.01,2.28-1.32,.06-.02,.09,.06,.04,.09-.76,.45-1.48,.97-2.15,1.54-.34,.29-.66,.59-.98,.89-.32,.3-.6,.68-.95,.94-.03,.02-.06-.02-.05-.05,.2-.4,.55-.76,.83-1.11Z" style="fill:#263238;"></path><path d="M238,59.85c.33-.26,.67-.51,1.01-.75,.34-.24,.68-.48,1.08-.6,.06-.02,.08,.06,.04,.09-.64,.5-1.27,1.02-1.9,1.54-.59,.49-.99,1.12-1.46,1.71-.02,.03-.07,0-.06-.03,.24-.77,.65-1.44,1.28-1.95Z" style="fill:#263238;"></path><path d="M235.67,59.34c.6-.59,1.32-.96,2.08-1.28,.05-.02,.09,.07,.04,.09-.71,.34-1.33,.87-1.89,1.41-.58,.55-1.05,1.18-1.5,1.84-.02,.03-.08,.02-.07-.03,.26-.77,.76-1.46,1.34-2.03Z" style="fill:#263238;"></path><path d="M232.6,60.72c.08-.16,.17-.32,.27-.47,.2-.31,.44-.58,.7-.84,.53-.53,1.15-.94,1.77-1.35,.06-.04,.11,.05,.05,.09-.61,.39-1.16,.87-1.66,1.39-.25,.26-.47,.53-.67,.82-.1,.14-.19,.29-.28,.44-.08,.14-.15,.32-.26,.44-.03,.03-.09,0-.09-.04,0-.16,.1-.34,.17-.48Z" style="fill:#263238;"></path><path d="M230.73,60.87c.18-.24,.37-.47,.57-.7,.21-.22,.42-.43,.65-.62,.24-.2,.48-.38,.71-.59,.05-.05,.12,.03,.06,.08-.24,.19-.46,.42-.66,.65-.19,.22-.39,.43-.59,.65-.19,.22-.39,.43-.58,.65-.19,.22-.37,.47-.59,.67-.04,.03-.08,0-.07-.05,.11-.27,.32-.51,.49-.74Z" style="fill:#263238;"></path></g></g></g></g></g></g></g></g></svg>
